<svg width="298" height="298" viewBox="0 0 298 298" fill="none" xmlns="http://www.w3.org/2000/svg">
<path d="M158.063 28.8282L169.958 3.23443L174.16 31.1426L174.356 32.4418L175.073 31.3413L190.489 7.70073L190.677 35.9229L190.686 37.2366L191.553 36.2495L210.176 15.0435L206.345 43.0051L206.167 44.3067L207.165 43.453L228.617 25.1132L220.846 52.245L220.484 53.508L221.594 52.8051L245.438 37.7049L233.885 63.4546L233.347 64.6533L234.545 64.1155L260.295 52.5623L245.195 76.4057L244.492 77.5156L245.755 77.1539L272.887 69.3828L254.547 90.8345L253.693 91.8331L254.995 91.6548L282.957 87.8241L261.751 106.447L260.763 107.314L262.077 107.323L290.299 107.511L266.659 122.927L265.558 123.644L266.857 123.84L294.766 128.042L269.172 139.937L267.98 140.49L269.238 140.869L296.265 149L269.238 157.131L267.98 157.51L269.172 158.063L294.766 169.958L266.857 174.16L265.558 174.356L266.659 175.073L290.299 190.489L262.077 190.677L260.763 190.686L261.751 191.553L282.957 210.176L254.995 206.345L253.693 206.167L254.547 207.165L272.887 228.617L245.755 220.846L244.492 220.484L245.195 221.594L260.295 245.438L234.545 233.885L233.347 233.347L233.885 234.545L245.438 260.295L221.594 245.195L220.484 244.492L220.846 245.755L228.617 272.887L207.165 254.547L206.167 253.693L206.345 254.995L210.176 282.957L191.553 261.751L190.686 260.763L190.677 262.077L190.489 290.299L175.073 266.659L174.356 265.558L174.16 266.857L169.958 294.766L158.063 269.172L157.51 267.98L157.131 269.238L149 296.265L140.869 269.238L140.49 267.98L139.937 269.172L128.042 294.766L123.84 266.857L123.644 265.558L122.927 266.659L107.511 290.299L107.323 262.077L107.314 260.763L106.447 261.751L87.8241 282.957L91.6548 254.995L91.8331 253.693L90.8345 254.547L69.3828 272.887L77.1539 245.755L77.5156 244.492L76.4057 245.195L52.5623 260.295L64.1155 234.545L64.6533 233.347L63.4546 233.885L37.7049 245.438L52.8051 221.594L53.508 220.484L52.245 220.846L25.1132 228.617L43.453 207.165L44.3067 206.167L43.0051 206.345L15.0435 210.176L36.2495 191.553L37.2366 190.686L35.9229 190.677L7.70073 190.489L31.3413 175.073L32.4418 174.356L31.1426 174.16L3.23443 169.958L28.8282 158.063L30.0197 157.51L28.7616 157.131L1.7355 149L28.7616 140.869L30.0197 140.49L28.8282 139.937L3.23442 128.042L31.1426 123.84L32.4418 123.644L31.3413 122.927L7.70074 107.511L35.9229 107.323L37.2366 107.314L36.2495 106.447L15.0435 87.8241L43.0051 91.6548L44.3067 91.8331L43.453 90.8345L25.1132 69.3828L52.245 77.1539L53.508 77.5156L52.8051 76.4057L37.7049 52.5622L63.4546 64.1155L64.6533 64.6533L64.1155 63.4546L52.5622 37.7049L76.4057 52.8051L77.5156 53.508L77.1539 52.245L69.3828 25.1132L90.8345 43.453L91.8331 44.3067L91.6548 43.0051L87.8241 15.0435L106.447 36.2495L107.314 37.2366L107.323 35.9229L107.511 7.70074L122.927 31.3413L123.644 32.4418L123.84 31.1426L128.042 3.23442L139.937 28.8282L140.49 30.0197L140.869 28.7616L149 1.7355L157.131 28.7616L157.51 30.0197L158.063 28.8282Z" fill="#E5B5FF" fill-opacity="0.666667" stroke="#1E1E1E"/>
<path d="M104.966 154.354H106.352V144.946H104.966V142.3H111.413C112.113 142.3 112.729 142.398 113.261 142.594C113.807 142.79 114.262 143.056 114.626 143.392C115.004 143.728 115.284 144.134 115.466 144.61C115.662 145.072 115.76 145.576 115.76 146.122V146.374C115.76 147.214 115.522 147.886 115.046 148.39C114.584 148.894 113.996 149.244 113.282 149.44V149.818C113.996 150.014 114.584 150.371 115.046 150.889C115.522 151.393 115.76 152.065 115.76 152.905V153.157C115.76 153.703 115.662 154.214 115.466 154.69C115.284 155.152 115.004 155.558 114.626 155.908C114.262 156.244 113.807 156.51 113.261 156.706C112.729 156.902 112.113 157 111.413 157H104.966V154.354ZM109.124 154.354H111.14C111.728 154.354 112.204 154.228 112.568 153.976C112.932 153.724 113.114 153.304 113.114 152.716V152.59C113.114 152.002 112.932 151.582 112.568 151.33C112.204 151.078 111.728 150.952 111.14 150.952H109.124V154.354ZM109.124 148.306H111.14C111.728 148.306 112.204 148.187 112.568 147.949C112.932 147.697 113.114 147.277 113.114 146.689V146.563C113.114 145.975 112.932 145.562 112.568 145.324C112.204 145.072 111.728 144.946 111.14 144.946H109.124V148.306ZM128.576 142.3V151.918C128.576 153.598 128.128 154.914 127.232 155.866C126.35 156.818 125.034 157.294 123.284 157.294C121.534 157.294 120.211 156.818 119.315 155.866C118.433 154.914 117.992 153.598 117.992 151.918V142.3H120.764V151.918C120.764 152.786 120.967 153.465 121.373 153.955C121.779 154.445 122.416 154.69 123.284 154.69C124.152 154.69 124.789 154.445 125.195 153.955C125.601 153.465 125.804 152.786 125.804 151.918V142.3H128.576ZM134.757 151.834H134.127L129.906 142.3H132.93L135.954 149.314H136.332L139.356 142.3H142.38L138.159 151.834H137.529V157H134.757V151.834ZM163.855 155.614H164.233V142.3H167.005V157H161.587L159.865 143.686H159.487V157H156.715V142.3H162.133L163.855 155.614ZM169.3 148.012C169.3 146.108 169.776 144.631 170.728 143.581C171.694 142.531 173.024 142.006 174.718 142.006C176.412 142.006 177.735 142.531 178.687 143.581C179.653 144.631 180.136 146.108 180.136 148.012V151.288C180.136 153.248 179.653 154.739 178.687 155.761C177.735 156.783 176.412 157.294 174.718 157.294C173.024 157.294 171.694 156.783 170.728 155.761C169.776 154.739 169.3 153.248 169.3 151.288V148.012ZM174.718 154.774C175.222 154.774 175.642 154.697 175.978 154.543C176.314 154.375 176.587 154.144 176.797 153.85C177.007 153.556 177.154 153.206 177.238 152.8C177.322 152.394 177.364 151.946 177.364 151.456V147.844C177.364 147.382 177.315 146.948 177.217 146.542C177.119 146.136 176.965 145.786 176.755 145.492C176.545 145.198 176.272 144.967 175.936 144.799C175.6 144.617 175.194 144.526 174.718 144.526C174.242 144.526 173.836 144.617 173.5 144.799C173.164 144.967 172.891 145.198 172.681 145.492C172.471 145.786 172.317 146.136 172.219 146.542C172.121 146.948 172.072 147.382 172.072 147.844V151.456C172.072 151.946 172.114 152.394 172.198 152.8C172.282 153.206 172.429 153.556 172.639 153.85C172.849 154.144 173.122 154.375 173.458 154.543C173.794 154.697 174.214 154.774 174.718 154.774ZM193.33 157H188.5L187.828 145.828V143.812H187.324V145.828L186.652 157H181.822L181.318 142.3H183.838L184.174 153.472V155.362H184.678V153.472L185.35 142.3H189.802L190.474 153.472V155.362H190.978V153.472L191.314 142.3H193.834L193.33 157Z" fill="#1E1E1E"/>
</svg>
