<svg width="96" height="99" viewBox="0 0 96 99" fill="none" xmlns="http://www.w3.org/2000/svg">
<g clip-path="url(#clip0_40_1032)">
<path d="M56.25 1.25C56.25 1.94036 56.8096 2.5 57.5 2.5H58.75C59.4404 2.5 60 1.94036 60 1.25C60 0.559645 59.4404 0 58.75 0H57.5C56.8096 0 56.25 0.559645 56.25 1.25Z" fill="#7BFFD8"/>
<path d="M20 40H26.0723L24.3045 38.2322C23.8357 37.7634 23.1998 37.5 22.5368 37.5H20C10.335 37.5 2.5 29.665 2.5 20C2.5 10.335 10.335 2.50001 20 2.5H40C49.665 2.5 57.5 10.335 57.5 20C57.5 29.665 49.665 37.5 40 37.5H32.5184C31.5238 37.5 30.57 37.1049 29.8667 36.4017L27.7957 34.3306C26.6236 33.1585 25.0338 32.5 23.3762 32.5H20C13.0964 32.5 7.5 26.9036 7.5 20C7.5 13.0964 13.0964 7.5 20 7.5H40C46.9036 7.5 52.5 13.0964 52.5 20C52.5 26.9036 46.9036 32.5 40 32.5H35.1961C34.2015 32.5 33.2477 32.1049 32.5444 31.4017L30.4733 29.3306C29.3012 28.1585 27.7115 27.5 26.0539 27.5H20C15.8579 27.5 12.5 24.1421 12.5 20C12.5 15.8579 15.8579 12.5 20 12.5H40C44.1421 12.5 47.5 15.8579 47.5 20C47.5 24.0916 44.2235 27.418 40.1512 27.4985L40.1504 27.5H38.3211C37.3265 27.5 36.3727 27.1049 35.6694 26.4017L33.5983 24.3306C32.6366 23.3688 31.3937 22.7529 30.0628 22.5628L30 22.5H20C18.6193 22.5 17.5 21.3807 17.5 20C17.5 18.6193 18.6193 17.5 20 17.5H40C41.3807 17.5 42.5 18.6193 42.5 20C42.5 21.3807 41.3807 22.5 40 22.5H35L36.7678 24.2678C37.2366 24.7366 37.8725 25 38.5355 25H40C42.7614 25 45 22.7614 45 20C45 17.2386 42.7614 15 40 15H20C17.2386 15 15 17.2386 15 20C15 22.7614 17.2386 25 20 25H29.1789C30.1735 25 31.1273 25.3951 31.8306 26.0983L33.9017 28.1694C35.0738 29.3415 36.6635 30 38.3211 30H40.625V29.9808C45.8567 29.6582 50 25.3129 50 20C50 14.4772 45.5228 10 40 10H20C14.4772 10 10 14.4772 10 20C10 25.5229 14.4772 30 20 30H26.0539C27.0485 30 28.0023 30.3951 28.7056 31.0983L30.7767 33.1694C31.9488 34.3415 33.5385 35 35.1961 35H40C48.2843 35 55 28.2843 55 20C55 11.7157 48.2843 5 40 5H20C11.7157 5 5 11.7157 5 20C5 28.2843 11.7157 35 20 35H23.3762C24.3708 35 25.3246 35.3951 26.0279 36.0983L28.099 38.1694C29.2711 39.3415 30.8608 40 32.5184 40H40C51.0457 40 60 31.0457 60 20C60 8.9543 51.0457 -9.65645e-07 40 0L20 4.13264e-06C8.9543 5.09829e-06 -9.65645e-07 8.95431 0 20C9.65645e-07 31.0457 8.95431 40 20 40Z" fill="#7BFFD8"/>
</g>
<path d="M1.67106 73V55.2766H5.01319V69.9617H13.1153V73H1.67106ZM21.1809 73.3545C18.9528 73.3545 17.1804 72.7468 15.8638 71.5315C14.5472 70.2993 13.8889 68.5438 13.8889 66.2651V62.0115C13.8889 59.7328 14.5472 57.9857 15.8638 56.7704C17.1804 55.5382 18.9528 54.9221 21.1809 54.9221C23.4089 54.9221 25.1813 55.5382 26.4979 56.7704C27.8145 57.9857 28.4728 59.7328 28.4728 62.0115V66.2651C28.4728 68.5438 27.8145 70.2993 26.4979 71.5315C25.1813 72.7468 23.4089 73.3545 21.1809 73.3545ZM21.1809 70.3668C22.4299 70.3668 23.4005 70.0039 24.0926 69.2781C24.7846 68.5523 25.1306 67.5817 25.1306 66.3664V61.9102C25.1306 60.6949 24.7846 59.7243 24.0926 58.9985C23.4005 58.2727 22.4299 57.9098 21.1809 57.9098C19.9487 57.9098 18.9781 58.2727 18.2692 58.9985C17.5771 59.7243 17.2311 60.6949 17.2311 61.9102V66.3664C17.2311 67.5817 17.5771 68.5523 18.2692 69.2781C18.9781 70.0039 19.9487 70.3668 21.1809 70.3668ZM30.8979 73V55.2766H37.253L40.7723 70.7213H41.2281V55.2766H44.5196V73H38.1645L34.6451 57.5553H34.1894V73H30.8979ZM46.847 73V70.063H49.1763V58.2136H46.847V55.2766H54.1389C56.5189 55.2766 58.325 55.8843 59.5572 57.0996C60.8062 58.298 61.4308 60.0872 61.4308 62.4672V65.8094C61.4308 68.1894 60.8062 69.987 59.5572 71.2023C58.325 72.4008 56.5189 73 54.1389 73H46.847ZM52.5184 69.9617H54.1895C55.5399 69.9617 56.5273 69.6072 57.1518 68.8983C57.7764 68.1894 58.0887 67.1935 58.0887 65.9106V62.366C58.0887 61.0662 57.7764 60.0704 57.1518 59.3783C56.5273 58.6694 55.5399 58.3149 54.1895 58.3149H52.5184V69.9617ZM70.5967 73.3545C68.3686 73.3545 66.5963 72.7468 65.2797 71.5315C63.9631 70.2993 63.3048 68.5438 63.3048 66.2651V62.0115C63.3048 59.7328 63.9631 57.9857 65.2797 56.7704C66.5963 55.5382 68.3686 54.9221 70.5967 54.9221C72.8248 54.9221 74.5971 55.5382 75.9137 56.7704C77.2303 57.9857 77.8886 59.7328 77.8886 62.0115V66.2651C77.8886 68.5438 77.2303 70.2993 75.9137 71.5315C74.5971 72.7468 72.8248 73.3545 70.5967 73.3545ZM70.5967 70.3668C71.8458 70.3668 72.8164 70.0039 73.5084 69.2781C74.2005 68.5523 74.5465 67.5817 74.5465 66.3664V61.9102C74.5465 60.6949 74.2005 59.7243 73.5084 58.9985C72.8164 58.2727 71.8458 57.9098 70.5967 57.9098C69.3645 57.9098 68.3939 58.2727 67.685 58.9985C66.993 59.7243 66.6469 60.6949 66.6469 61.9102V66.3664C66.6469 67.5817 66.993 68.5523 67.685 69.2781C68.3939 70.0039 69.3645 70.3668 70.5967 70.3668ZM80.3137 73V55.2766H86.6688L90.1882 70.7213H90.6439V55.2766H93.9354V73H87.5803L84.061 57.5553H83.6052V73H80.3137ZM1.67106 96V78.2766H12.8115V81.3149H5.01319V85.5938H12.2038V88.6321H5.01319V96H1.67106ZM14.6897 96V78.2766H26.0833V81.3149H18.0318V85.5432H25.3743V88.5815H18.0318V92.9617H26.2352V96H14.6897ZM34.3553 96.3545C32.9881 96.3545 31.7812 96.1097 30.7347 95.6202C29.6882 95.1307 28.8695 94.4302 28.2787 93.5187C27.6879 92.6072 27.3925 91.5101 27.3925 90.2272V89.5183H30.684V90.2272C30.684 91.2906 31.0132 92.0924 31.6715 92.6326C32.3298 93.1558 33.2244 93.4174 34.3553 93.4174C35.5031 93.4174 36.3555 93.1896 36.9125 92.7338C37.4865 92.2781 37.7734 91.6957 37.7734 90.9868C37.7734 90.4973 37.6299 90.1006 37.343 89.7968C37.0729 89.493 36.6678 89.2482 36.1277 89.0626C35.6044 88.86 34.963 88.6743 34.2034 88.5055L33.6211 88.3789C32.4057 88.1089 31.3592 87.7713 30.4815 87.3662C29.6206 86.9442 28.9539 86.3956 28.4813 85.7204C28.0255 85.0452 27.7977 84.1675 27.7977 83.0872C27.7977 82.0069 28.0508 81.087 28.5572 80.3274C29.0805 79.551 29.8063 78.9602 30.7347 78.5551C31.6799 78.1331 32.7855 77.9221 34.0515 77.9221C35.3174 77.9221 36.4399 78.1416 37.4189 78.5804C38.4148 79.0024 39.1913 79.6438 39.7483 80.5047C40.3222 81.3487 40.6091 82.4121 40.6091 83.6949V84.4545H37.3177V83.6949C37.3177 83.0197 37.1826 82.4796 36.9125 82.0745C36.6594 81.6525 36.288 81.3487 35.7985 81.163C35.309 80.9604 34.7267 80.8591 34.0515 80.8591C33.0387 80.8591 32.2876 81.0533 31.7981 81.4415C31.3255 81.8128 31.0891 82.3277 31.0891 82.986C31.0891 83.4248 31.1989 83.7962 31.4183 84.1C31.6546 84.4038 32.0006 84.657 32.4564 84.8596C32.9121 85.0621 33.4945 85.2394 34.2034 85.3913L34.7857 85.5179C36.0517 85.7879 37.1489 86.134 38.0772 86.556C39.0225 86.9779 39.7567 87.535 40.28 88.227C40.8033 88.9191 41.0649 89.8052 41.0649 90.8855C41.0649 91.9658 40.7864 92.9195 40.2294 93.7466C39.6892 94.5568 38.9128 95.1982 37.9 95.6709C36.9041 96.1266 35.7225 96.3545 34.3553 96.3545ZM46.5841 96V81.3149H41.419V78.2766H55.0913V81.3149H49.9262V96H46.5841Z" fill="#7BFFD8"/>
<defs>
<clipPath id="clip0_40_1032">
<rect width="60" height="40" fill="white"/>
</clipPath>
</defs>
</svg>
