<svg width="200" height="40" viewBox="0 0 200 40" fill="none" xmlns="http://www.w3.org/2000/svg">
<path d="M98 0.999999C98 1.55229 98.5969 2 99.3333 2H100.667C101.403 2 102 1.55229 102 0.999999C102 0.447716 101.403 0 100.667 0H99.3333C98.5969 0 98 0.447716 98 0.999999Z" fill="#1E1E1E"/>
<path d="M90 40H96.0723L94.3045 38.2322C93.8357 37.7634 93.1998 37.5 92.5368 37.5H90C80.335 37.5 72.5 29.665 72.5 20C72.5 10.335 80.335 2.50001 90 2.5H110C119.665 2.5 127.5 10.335 127.5 20C127.5 29.665 119.665 37.5 110 37.5H102.518C101.524 37.5 100.57 37.1049 99.8667 36.4017L97.7957 34.3306C96.6236 33.1585 95.0338 32.5 93.3762 32.5H90C83.0964 32.5 77.5 26.9036 77.5 20C77.5 13.0964 83.0964 7.5 90 7.5H110C116.904 7.5 122.5 13.0964 122.5 20C122.5 26.9036 116.904 32.5 110 32.5H105.196C104.201 32.5 103.248 32.1049 102.544 31.4017L100.473 29.3306C99.3012 28.1585 97.7115 27.5 96.0539 27.5H90C85.8579 27.5 82.5 24.1421 82.5 20C82.5 15.8579 85.8579 12.5 90 12.5H110C114.142 12.5 117.5 15.8579 117.5 20C117.5 24.0916 114.223 27.418 110.151 27.4985L110.15 27.5H108.321C107.326 27.5 106.373 27.1049 105.669 26.4017L103.598 24.3306C102.637 23.3688 101.394 22.7529 100.063 22.5628L100 22.5H90C88.6193 22.5 87.5 21.3807 87.5 20C87.5 18.6193 88.6193 17.5 90 17.5H110C111.381 17.5 112.5 18.6193 112.5 20C112.5 21.3807 111.381 22.5 110 22.5H105L106.768 24.2678C107.237 24.7366 107.873 25 108.535 25H110C112.761 25 115 22.7614 115 20C115 17.2386 112.761 15 110 15H90C87.2386 15 85 17.2386 85 20C85 22.7614 87.2386 25 90 25H99.1789C100.174 25 101.127 25.3951 101.831 26.0983L103.902 28.1694C105.074 29.3415 106.663 30 108.321 30H110.625V29.9808C115.857 29.6582 120 25.3129 120 20C120 14.4772 115.523 10 110 10H90C84.4772 10 80 14.4772 80 20C80 25.5229 84.4772 30 90 30H96.0539C97.0485 30 98.0023 30.3951 98.7056 31.0983L100.777 33.1694C101.949 34.3415 103.538 35 105.196 35H110C118.284 35 125 28.2843 125 20C125 11.7157 118.284 5 110 5H90C81.7157 5 75 11.7157 75 20C75 28.2843 81.7157 35 90 35H93.3762C94.3708 35 95.3246 35.3951 96.0279 36.0983L98.099 38.1694C99.2711 39.3415 100.861 40 102.518 40H110C121.046 40 130 31.0457 130 20C130 8.9543 121.046 -9.65645e-07 110 0L90 4.13264e-06C78.9543 5.09829e-06 70 8.95431 70 20C70 31.0457 78.9543 40 90 40Z" fill="#1E1E1E"/>
</svg>
