<svg width="200" height="51" viewBox="0 0 200 51" fill="none" xmlns="http://www.w3.org/2000/svg">
<path d="M23 10.4041V4H3V48H23V41.5959C18.903 41.5959 14.9737 39.9527 12.0768 37.0279C9.17976 34.1031 7.55224 30.1363 7.55224 26C7.55224 21.8637 9.17976 17.8968 12.0768 14.972C14.9737 12.0473 18.903 10.4041 23 10.4041Z" fill="#1E1E1E"/>
<path d="M23 10V41C26.9783 41 30.7936 39.3669 33.6067 36.4601C36.4197 33.5533 38 29.6109 38 25.5C38 21.3891 36.4197 17.4466 33.6067 14.5399C30.7936 11.633 26.9783 10 23 10Z" fill="#1E1E1E"/>
<path d="M50 14H54V36H50V14Z" fill="#1E1E1E"/>
<path d="M57.0007 27.9998C57.0007 26.4156 57.4711 24.8672 58.3521 23.5506C59.2332 22.234 60.4852 21.2087 61.9497 20.6045C63.4141 20.0004 65.0249 19.8447 66.5779 20.1571C68.1309 20.4695 69.5562 21.2359 70.6731 22.3593C71.79 23.4828 72.5483 24.9124 72.8519 26.4673C73.1553 28.0222 72.9904 29.6321 72.3778 31.0931C71.7653 32.554 70.733 33.8003 69.4114 34.6737C68.0899 35.5473 66.5387 36.0087 64.9546 35.9998C63.904 36.008 62.8622 35.8064 61.8905 35.4065C60.9189 35.0068 60.0366 34.4171 59.2958 33.6721C58.5549 32.927 57.9704 32.0414 57.5762 31.0674C57.1822 30.0933 56.9865 29.0505 57.0007 27.9998ZM68.4592 27.9998C68.4413 27.3168 68.2223 26.6543 67.8298 26.0952C67.4373 25.536 66.8887 25.1049 66.2524 24.8559C65.6162 24.6069 64.9208 24.551 64.2531 24.6953C63.5853 24.8394 62.9748 25.1773 62.4981 25.6667C62.0213 26.156 61.6993 26.775 61.5725 27.4464C61.4458 28.1177 61.5197 28.8115 61.7851 29.441C62.0505 30.0705 62.4956 30.6079 63.0649 30.9857C63.634 31.3636 64.3019 31.5652 64.9851 31.5655C65.4503 31.5746 65.9123 31.4876 66.3423 31.31C66.7723 31.1324 67.161 30.868 67.4842 30.5334C67.8074 30.1988 68.058 29.8009 68.2206 29.3651C68.3832 28.9292 68.4541 28.4644 68.4288 27.9998H68.4592Z" fill="#1E1E1E"/>
<path d="M90 20.3426V34.7383C90 39.8173 86.141 41.9744 82.2375 41.9744C80.8606 42.0908 79.4795 41.8089 78.2498 41.1602C77.02 40.5116 75.9902 39.5219 75.2764 38.3028L79.0315 36.0692C79.3358 36.7017 79.8198 37.2233 80.4191 37.565C81.0185 37.9066 81.7045 38.0519 82.3859 37.9815C82.82 38.0366 83.2606 37.9922 83.676 37.8515C84.0916 37.7106 84.4717 37.477 84.7893 37.167C85.1071 36.8571 85.3544 36.4788 85.5136 36.0588C85.6729 35.6391 85.7401 35.1881 85.7106 34.7383V33.3461C85.1924 33.9937 84.5349 34.5077 83.7904 34.8477C83.0458 35.1876 82.2347 35.3439 81.4211 35.3043C79.4529 35.3043 77.5654 34.4984 76.1737 33.0639C74.7819 31.6295 74 29.6839 74 27.6552C74 25.6265 74.7819 23.681 76.1737 22.2465C77.5654 20.8119 79.4529 20.006 81.4211 20.006C82.2347 19.9664 83.0458 20.1227 83.7904 20.4627C84.5349 20.8026 85.1924 21.3166 85.7106 21.9642V20.4344L90 20.3426ZM85.7106 27.6093C85.7401 26.8774 85.5567 26.153 85.1837 25.5295C84.8107 24.9059 84.2654 24.4116 83.6175 24.1101C82.9698 23.8086 82.2495 23.7137 81.5489 23.8376C80.8485 23.9616 80.1999 24.2986 79.6868 24.8054C79.1737 25.3122 78.8194 25.9658 78.6695 26.6819C78.5196 27.398 78.5809 28.1438 78.8456 28.8237C79.1104 29.5035 79.5663 30.0862 80.1548 30.4968C80.7435 30.9074 81.4378 31.1273 82.1484 31.1279C82.6122 31.1623 83.0778 31.0961 83.5151 30.9336C83.9525 30.771 84.3521 30.5156 84.6876 30.184C85.0234 29.8525 85.2879 29.452 85.464 29.0085C85.6402 28.565 85.7242 28.0883 85.7106 27.6093Z" fill="#1E1E1E"/>
<path d="M93.0005 27.9998C93.0005 26.4169 93.4702 24.8697 94.3498 23.5538C95.2295 22.2378 96.4797 21.2125 97.9424 20.6076C99.405 20.0025 101.014 19.8449 102.567 20.1548C104.119 20.4648 105.544 21.2282 106.662 22.3485C107.781 23.4689 108.541 24.8958 108.848 26.4485C109.155 28.0014 108.995 29.6103 108.387 31.0718C107.779 32.5334 106.751 33.7816 105.434 34.6589C104.116 35.5361 102.568 36.0027 100.985 35.9996C99.9324 36.0098 98.8882 35.8098 97.9139 35.4111C96.9396 35.0125 96.0546 34.4234 95.311 33.6783C94.5673 32.9332 93.9799 32.0471 93.5831 31.0721C93.1864 30.097 92.9883 29.0524 93.0005 27.9998ZM104.459 27.9998C104.441 27.3163 104.222 26.6531 103.829 26.0936C103.436 25.5342 102.886 25.1031 102.249 24.8546C101.612 24.6061 100.916 24.5511 100.247 24.6966C99.5792 24.842 98.9688 25.1815 98.4926 25.6723C98.0164 26.1631 97.6957 26.7836 97.5707 27.4558C97.4456 28.1281 97.5217 28.8224 97.7894 29.4515C98.0571 30.0808 98.5046 30.6171 99.0759 30.9931C99.647 31.369 100.316 31.5682 101 31.5655C101.465 31.5746 101.927 31.4876 102.357 31.3099C102.787 31.1324 103.176 30.868 103.499 30.5334C103.823 30.1988 104.073 29.8009 104.236 29.3651C104.398 28.9292 104.469 28.4644 104.444 27.9998H104.459Z" fill="#1E1E1E"/>
<path d="M110 16.6085C110 16.0927 110.147 15.5883 110.421 15.1593C110.696 14.7303 111.087 14.396 111.543 14.1986C112 14.0011 112.503 13.9495 112.988 14.0501C113.473 14.1508 113.918 14.3992 114.268 14.764C114.617 15.1288 114.855 15.5937 114.952 16.0996C115.048 16.6056 114.999 17.1301 114.81 17.6068C114.621 18.0834 114.3 18.4907 113.889 18.7774C113.478 19.064 112.995 19.217 112.5 19.217C111.839 19.2094 111.208 18.9321 110.74 18.4446C110.273 17.957 110.007 17.298 110 16.6085ZM110.407 20.492H114.621V35H110.407V20.492Z" fill="#1E1E1E"/>
<path d="M133.99 27.7555C134.04 28.732 133.896 29.7088 133.567 30.6296C133.238 31.5503 132.729 32.3969 132.071 33.1205C131.413 33.8443 130.618 34.4307 129.732 34.8463C128.846 35.2619 127.886 35.4983 126.908 35.542C126.078 35.5972 125.247 35.4645 124.476 35.1537C123.704 34.8429 123.013 34.3622 122.454 33.7474V41H118V20.414H122.454V21.7933C123.014 21.1803 123.706 20.7018 124.477 20.3936C125.248 20.0853 126.08 19.9554 126.908 20.0135C127.882 20.0573 128.838 20.2923 129.721 20.7051C130.604 21.1179 131.397 21.7004 132.054 22.4193C132.712 23.1382 133.222 23.9794 133.554 24.8951C133.886 25.8107 134.034 26.7826 133.99 27.7555ZM129.536 27.7555C129.519 27.0666 129.298 26.3983 128.902 25.8343C128.506 25.2702 127.952 24.8354 127.309 24.5846C126.667 24.3336 125.964 24.2779 125.29 24.4239C124.616 24.57 124 24.9117 123.52 25.4061C123.039 25.9004 122.715 26.5254 122.589 27.2029C122.462 27.8803 122.539 28.5799 122.809 29.2141C123.079 29.8481 123.53 30.3886 124.106 30.7676C124.682 31.1467 125.357 31.3474 126.047 31.3447C126.52 31.3648 126.991 31.2848 127.43 31.1101C127.87 30.9354 128.267 30.6699 128.597 30.331C128.926 29.9921 129.18 29.5874 129.342 29.1436C129.504 28.6997 129.57 28.2267 129.536 27.7555Z" fill="#1E1E1E"/>
<path d="M148 31.0076C148 34.4912 144.897 35.9733 141.609 35.9733C140.267 36.0922 138.92 35.8121 137.742 35.1693C136.564 34.5265 135.609 33.5505 135 32.3674L139.002 30.1367C139.161 30.6819 139.505 31.1569 139.976 31.4823C140.448 31.8078 141.019 31.9638 141.593 31.9244C142.695 31.9244 143.253 31.5882 143.253 30.977C143.253 29.3116 135.698 30.1978 135.698 24.9571C135.698 21.6568 138.521 20.0067 141.717 20.0067C142.932 19.953 144.139 20.2245 145.209 20.7921C146.28 21.3598 147.175 22.2024 147.798 23.2305L143.796 25.3085C143.619 24.9143 143.33 24.5791 142.964 24.3432C142.598 24.1073 142.17 23.9809 141.733 23.9792C140.926 23.9792 140.445 24.2848 140.445 24.8196C140.445 26.5614 148 25.4155 148 31.0076Z" fill="#1E1E1E"/>
<path d="M164 21V35.551H159.593V34.1841C159.092 34.7892 158.456 35.2679 157.737 35.582C157.018 35.8961 156.235 36.0365 155.45 35.9919C152.512 35.9919 150 33.8901 150 29.9658V21H154.407V29.3044C154.372 29.6515 154.413 30.0021 154.528 30.3319C154.642 30.6616 154.826 30.9626 155.067 31.2142C155.309 31.4657 155.603 31.6618 155.928 31.7889C156.252 31.9159 156.6 31.9709 156.949 31.95C158.535 31.95 159.652 31.0093 159.652 29.0104V21H164Z" fill="#1E1E1E"/>
<path d="M189 26.0414V35H184.582V26.4245C184.582 24.9511 183.89 24.0375 182.491 24.0375C181.092 24.0375 180.209 25.0542 180.209 26.7781V35H175.791V26.4245C175.791 24.9511 175.099 24.0375 173.7 24.0375C172.301 24.0375 171.418 25.0542 171.418 26.7781V35H167V20.4128H171.418V21.7537C171.876 21.1613 172.472 20.6922 173.157 20.3887C173.84 20.0851 174.59 19.9566 175.335 20.015C176.081 19.976 176.826 20.1321 177.495 20.4679C178.163 20.8037 178.733 21.3078 179.149 21.9305C179.635 21.2798 180.277 20.7629 181.016 20.428C181.754 20.0929 182.566 19.9509 183.375 20.015C186.821 20.015 189 22.402 189 26.0414Z" fill="#1E1E1E"/>
<path d="M193.5 21C195.433 21 197 19.433 197 17.5C197 15.567 195.433 14 193.5 14C191.567 14 190 15.567 190 17.5C190 19.433 191.567 21 193.5 21Z" fill="#1E1E1E"/>
</svg>
