<svg width="200" height="53" viewBox="0 0 200 53" fill="none" xmlns="http://www.w3.org/2000/svg">
<path d="M46.0537 19C46.6224 19 46.812 19.1938 46.812 19.7157V31.5249H53.2417C53.7946 31.5249 54 31.7187 54 32.2406V33.2843C54 33.8062 53.7946 34 53.2417 34H44.7741C44.2212 34 44 33.8062 44 33.2843V19.7157C44 19.1938 44.2212 19 44.7741 19H46.0537Z" fill="#1E1E1E"/>
<path d="M59 23.6489C59 20.1221 61.19 18 65 18C68.81 18 71 20.1221 71 23.6489V28.3511C71 31.8779 68.795 34 65 34C61.205 34 59 31.8779 59 28.3511V23.6489ZM68.48 23.6489C68.48 21.6641 67.265 20.5954 65.075 20.5954C62.885 20.5954 61.685 21.6794 61.685 23.6489V28.3817C61.685 30.3817 62.885 31.4351 65.075 31.4351C67.265 31.4351 68.48 30.3359 68.48 28.3817V23.6489Z" fill="#1E1E1E"/>
<path d="M89.2842 25.3218C89.8648 25.3218 89.9987 25.5201 89.9987 26.054V28.9522C90.0145 29.6348 89.881 30.3125 89.608 30.9353C89.3348 31.5583 88.9293 32.1106 88.4207 32.552C87.1579 33.5824 85.5656 34.0936 83.9547 33.9859C80.099 33.9859 78 31.8656 78 28.342V23.6134C78 20.1355 80.1735 18 83.9547 18C86.9321 18 88.8673 19.205 89.6861 21.6151C89.732 21.7057 89.7565 21.806 89.7579 21.9078C89.7592 22.0099 89.7373 22.1109 89.694 22.2025C89.6507 22.2944 89.587 22.3746 89.5081 22.4368C89.4292 22.4989 89.3372 22.5415 89.2395 22.5609L88.0784 22.9727C87.5722 23.1558 87.3638 23.049 87.1851 22.5151C86.9385 21.8636 86.487 21.3148 85.9019 20.9557C85.3169 20.5966 84.6318 20.4475 83.9547 20.5321C81.7664 20.5321 80.5754 21.6151 80.5754 23.5829V28.4335C80.5754 30.4318 81.7812 31.4843 83.9547 31.4843C86.1282 31.4843 87.468 30.4623 87.468 28.9674V27.8386H84.2376C83.7016 27.8386 83.5081 27.6251 83.5081 27.0912V26.054C83.5081 25.5201 83.7016 25.3218 84.2376 25.3218H89.2842Z" fill="#1E1E1E"/>
<path d="M96 23.6489C96 20.1221 98.19 18 102 18C105.81 18 108 20.1221 108 23.6489V28.3511C108 31.8779 105.795 34 102 34C98.205 34 96 31.8779 96 28.3511V23.6489ZM105.465 23.6489C105.465 21.6641 104.25 20.5954 102.075 20.5954C99.9 20.5954 98.67 21.6794 98.67 23.6489V28.3817C98.67 30.3817 99.885 31.4351 102.075 31.4351C104.265 31.4351 105.465 30.3359 105.465 28.3817V23.6489Z" fill="#1E1E1E"/>
<path d="M116 19.4324C116 19.1044 116.137 19 116.569 19H117.471C117.902 19 118 19.1044 118 19.4324V33.5676C118 33.8956 118 34 117.471 34H116.569C116.137 34 116 33.8956 116 33.5676V19.4324Z" fill="#1E1E1E"/>
<path d="M131.176 19C132.455 19 133.682 19.4932 134.587 20.3713C135.492 21.2493 136 22.4402 136 23.6819C136 24.9237 135.492 26.1146 134.587 26.9925C133.682 27.8706 132.455 28.3638 131.176 28.3638H126.567V33.5676C126.567 33.8956 126.49 34 126.168 34H125.446C125.123 34 125 33.8956 125 33.5676V19.4324C125 19.1044 125.123 19 125.446 19H131.176ZM131.038 26.8877C131.478 26.8877 131.913 26.8036 132.319 26.6403C132.726 26.4769 133.095 26.2374 133.406 25.9356C133.717 25.6338 133.964 25.2754 134.132 24.8812C134.3 24.4868 134.387 24.0641 134.387 23.6372C134.387 23.2103 134.3 22.7876 134.132 22.3932C133.964 21.999 133.717 21.6405 133.406 21.3387C133.095 21.0369 132.726 20.7975 132.319 20.634C131.913 20.4708 131.478 20.3867 131.038 20.3867H126.429V26.8877H131.038Z" fill="#1E1E1E"/>
<path d="M147.959 18.0331C149.157 17.9037 150.367 18.156 151.407 18.7524C152.447 19.3489 153.263 20.2577 153.734 21.3439C153.858 21.5869 153.734 21.7843 153.486 21.9058L152.802 22.2096C152.523 22.3159 152.414 22.3007 152.243 22.0121C151.892 21.206 151.287 20.5302 150.517 20.0824C149.746 19.6347 148.851 19.4382 147.959 19.5214C145.335 19.5214 143.907 20.539 143.907 22.3614C143.891 22.9184 144.082 23.4621 144.445 23.8919C144.807 24.3217 145.316 24.6088 145.878 24.7003C146.713 24.9667 147.579 25.1299 148.455 25.1863C149.516 25.2415 150.563 25.4514 151.56 25.8089C152.326 26.0457 152.984 26.5326 153.425 27.1881C153.866 27.8436 154.063 28.6275 153.982 29.4083C153.982 32.2483 151.871 33.9645 147.99 33.9645C146.717 34.1069 145.432 33.8184 144.35 33.1468C143.268 32.4754 142.454 31.4613 142.044 30.274C142.016 30.2199 142.001 30.1605 142 30.1001C141.999 30.0396 142.011 29.9798 142.037 29.9247C142.062 29.8695 142.099 29.8205 142.146 29.7811C142.193 29.7417 142.248 29.713 142.307 29.6969L142.991 29.4539C143.044 29.4323 143.102 29.422 143.16 29.4235C143.218 29.425 143.275 29.4384 143.328 29.4627C143.381 29.487 143.427 29.5216 143.465 29.5646C143.504 29.6076 143.532 29.6577 143.549 29.712C143.897 30.57 144.514 31.2974 145.313 31.7891C146.111 32.2805 147.049 32.5106 147.99 32.4457C150.924 32.4457 152.368 31.4434 152.368 29.4083C152.396 28.8734 152.228 28.3463 151.895 27.9207C151.562 27.4953 151.086 27.199 150.551 27.0847C149.748 26.8503 148.92 26.7076 148.083 26.6594L146.406 26.4468C145.881 26.3379 145.363 26.2009 144.854 26.0367C144.35 25.8881 143.881 25.6457 143.472 25.3229C143.06 24.9581 142.735 24.5092 142.521 24.0079C142.306 23.5066 142.207 22.9653 142.23 22.4222C142.339 19.7644 144.372 18.0331 147.959 18.0331Z" fill="#1E1E1E"/>
<path d="M161.622 29.3447C161.688 30.4465 162.178 31.4814 162.991 32.2381C163.803 32.9948 164.877 33.416 165.992 33.416C167.107 33.416 168.181 32.9948 168.994 32.2381C169.806 31.4814 170.294 30.4465 170.362 29.3447V19.4518C170.362 19.1091 170.472 19 170.819 19H171.543C171.89 19 172 19.1091 172 19.4518V29.3291C172 32.8656 169.89 35 166 35C162.11 35 160 32.8656 160 29.3291V19.4518C160 19.1091 160.11 19 160.441 19H161.181C161.512 19 161.622 19.1091 161.622 19.4518V29.3447Z" fill="#1E1E1E"/>
<path d="M192.555 19.0025C192.893 19.0025 193 19.1069 193 19.4349V33.5677C193 33.8956 192.893 34 192.555 34H191.91C191.588 34 191.48 33.8956 191.48 33.5677V24.9657C191.48 23.7142 191.568 22.464 191.741 21.2238H191.649C191.17 22.3579 190.61 23.4587 189.976 24.5185L186.675 30.1686C186.636 30.2667 186.565 30.3505 186.474 30.4091C186.384 30.4675 186.278 30.4981 186.169 30.4966H185.739C185.629 30.4972 185.521 30.4664 185.427 30.4082C185.335 30.3499 185.262 30.2667 185.217 30.1686L181.871 24.4589C181.277 23.4143 180.764 22.3279 180.336 21.2089H180.243C180.4 22.4605 180.483 23.7199 180.489 24.9807V33.5677C180.489 33.8956 180.382 34 180.044 34H179.445C179.107 34 179 33.8956 179 33.5677V19.4349C179 19.1069 179.107 19.0025 179.445 19.0025H179.998C180.124 18.9912 180.251 19.0179 180.36 19.0793C180.471 19.1407 180.558 19.2338 180.612 19.3454L185.985 28.6182L191.327 19.4349C191.496 19.1218 191.588 19.0771 191.925 19.0771L192.555 19.0025Z" fill="#1E1E1E"/>
<path d="M19.0567 31.8505V42.7627C19.0567 43.1811 18.892 43.5823 18.5989 43.8779C18.3059 44.1738 17.9083 44.3399 17.4938 44.3399C17.0793 44.3399 16.6818 44.1738 16.3886 43.8779C16.0955 43.5823 15.9308 43.1811 15.9308 42.7627V31.8656C16.3661 32.1863 16.8877 32.3653 17.4265 32.3787C18.0136 32.3956 18.589 32.2092 19.0567 31.8505ZM32.3676 28.696C31.9709 28.696 31.5905 28.8551 31.31 29.1381C31.0296 29.4211 30.872 29.8051 30.872 30.2053V32.1071C30.872 32.5254 31.0366 32.9266 31.3298 33.2223C31.6228 33.5181 32.0203 33.6843 32.4349 33.6843C32.8495 33.6843 33.247 33.5181 33.54 33.2223C33.8331 32.9266 33.9978 32.5254 33.9978 32.1071V30.2808C34.0095 30.0644 33.9748 29.8479 33.8961 29.6463C33.8174 29.4446 33.6967 29.2623 33.5419 29.112C33.3873 28.9617 33.2023 28.8467 32.9998 28.7748C32.7971 28.7031 32.5815 28.6763 32.3676 28.696ZM12.5358 35.986C11.9976 35.9697 11.4767 35.791 11.0402 35.4728V46.4152C11.0402 46.8356 11.2056 47.2387 11.5002 47.5359C11.7947 47.8331 12.1941 48 12.6106 48C13.0271 48 13.4265 47.8331 13.721 47.5359C14.0155 47.2387 14.181 46.8356 14.181 46.4152V35.5483C13.6926 35.8669 13.1163 36.0202 12.5358 35.986ZM27.4919 25.4209C27.2892 25.4106 27.0867 25.4421 26.8965 25.5134C26.7064 25.5846 26.5326 25.6942 26.3856 25.8353C26.2387 25.9766 26.1219 26.1464 26.0421 26.3346C25.9623 26.5228 25.9212 26.7255 25.9215 26.9302V35.337C25.9215 35.7573 26.0869 36.1604 26.3814 36.4576C26.676 36.7548 27.0754 36.9217 27.4919 36.9217C27.9084 36.9217 28.3079 36.7548 28.6024 36.4576C28.8969 36.1604 29.0623 35.7573 29.0623 35.337V27.0358C29.0743 26.818 29.0393 26.6002 28.9597 26.3974C28.8801 26.1945 28.7581 26.0114 28.6016 25.8608C28.4452 25.7102 28.2584 25.5955 28.0539 25.5248C27.8495 25.4541 27.6322 25.4288 27.4171 25.451L27.4919 25.4209ZM22.5265 28.6508C21.9631 28.6468 21.4148 28.4677 20.9561 28.1376V39.1102C20.9561 39.5306 21.1215 39.9337 21.416 40.2309C21.7106 40.5281 22.11 40.695 22.5265 40.695C22.943 40.695 23.3423 40.5281 23.637 40.2309C23.9315 39.9337 24.0969 39.5306 24.0969 39.1102V28.1527C23.6225 28.5093 23.0432 28.6953 22.4517 28.6809L22.5265 28.6508ZM9.14078 37.0576V6.40365C9.13684 6.02999 8.98698 5.67301 8.72376 5.4102C8.46053 5.14738 8.10519 4.99998 7.73491 5H7.40587C7.03559 4.99998 6.68025 5.14738 6.41702 5.4102C6.15379 5.67301 6.00393 6.02999 6 6.40365V37.0576C6 37.4338 6.14813 37.7947 6.41177 38.0608C6.67542 38.3269 7.03302 38.4763 7.40587 38.4763H7.73491C8.10778 38.4763 8.46536 38.3269 8.72901 38.0608C8.99267 37.7947 9.14078 37.4338 9.14078 37.0576ZM12.7003 34.8238H12.3713C11.9984 34.8238 11.6408 34.6744 11.3772 34.4083C11.1135 34.1422 10.9654 33.7813 10.9654 33.4051V10.0562C10.9694 9.68252 11.1192 9.32551 11.3824 9.06271C11.6457 8.79989 12.001 8.65249 12.3713 8.65251H12.7003C13.0706 8.65249 13.426 8.79989 13.6892 9.06271C13.9524 9.32551 14.1023 9.68252 14.1062 10.0562V33.4352C14.1062 33.8115 13.9581 34.1724 13.6944 34.4385C13.4308 34.7046 13.0732 34.854 12.7003 34.854V34.8238ZM17.6508 31.2317H17.3068C16.938 31.2317 16.5841 31.0837 16.3233 30.8205C16.0625 30.5573 15.9159 30.2004 15.9159 29.828V13.6785C15.9139 13.4929 15.9485 13.3087 16.0174 13.1367C16.0864 12.9646 16.1885 12.8081 16.3179 12.6762C16.4473 12.5442 16.6013 12.4395 16.7711 12.368C16.9408 12.2965 17.1228 12.2597 17.3068 12.2597H17.6508C18.0211 12.2637 18.3748 12.4149 18.6352 12.6806C18.8957 12.9462 19.0417 13.3048 19.0417 13.6785V29.828C19.0417 30.2004 18.8951 30.5573 18.6343 30.8205C18.3735 31.0837 18.0198 31.2317 17.6508 31.2317ZM22.6013 27.5339H22.2872C21.9169 27.5339 21.5615 27.3866 21.2983 27.1236C21.0351 26.8609 20.8852 26.5039 20.8813 26.1302V17.4366C20.869 17.2429 20.8963 17.0486 20.9615 16.8658C21.0265 16.6832 21.1282 16.5158 21.26 16.3744C21.3918 16.2328 21.5509 16.1202 21.7277 16.0433C21.9043 15.9664 22.0947 15.9269 22.2872 15.9273H22.6162C22.9891 15.9273 23.3467 16.0768 23.6103 16.3429C23.874 16.6089 24.0221 16.9698 24.0221 17.3461V26.1C24.024 26.2876 23.9892 26.4737 23.9193 26.6476C23.8496 26.8215 23.7464 26.9797 23.6156 27.1131C23.4849 27.2463 23.3293 27.3522 23.1576 27.4244C22.9861 27.4967 22.8021 27.5339 22.6162 27.5339H22.6013ZM27.5667 24.2889H27.2376C26.8648 24.2889 26.5072 24.1395 26.2435 23.8734C25.9798 23.6073 25.8318 23.2464 25.8318 22.8701V20.6213C25.8357 20.2476 25.9855 19.8906 26.2487 19.6278C26.512 19.3649 26.8673 19.2176 27.2376 19.2176H27.5667C27.937 19.2176 28.2923 19.3649 28.5556 19.6278C28.8188 19.8906 28.9687 20.2476 28.9726 20.6213V22.8701C28.9726 23.2438 28.8266 23.6024 28.566 23.8681C28.3057 24.1337 27.9519 24.2849 27.5816 24.2889H27.5667Z" fill="#1E1E1E"/>
</svg>
