<svg width="200" height="25" viewBox="0 0 200 25" fill="none" xmlns="http://www.w3.org/2000/svg">
<path d="M99.6106 21.7276H92.8745V3.27102H99.6106V21.7276ZM93.5324 21.0534H98.9528V3.94521H93.5324V21.0534ZM108.983 21.7276H102.383V3.27102H116.173C118.149 3.10706 120.116 3.6755 121.717 4.8729C122.406 5.51919 122.941 6.31996 123.278 7.21273C123.616 8.1055 123.747 9.06613 123.663 10.0197C123.761 11.6673 123.25 13.2924 122.23 14.5704C121.024 15.9889 119.016 16.7197 116.264 16.7454C115.57 16.7642 110.375 16.7454 108.987 16.7454L108.983 21.7276ZM103.036 21.0534H108.325V16.0644H108.656C108.723 16.0644 115.468 16.086 116.248 16.0644C118.812 16.0415 120.655 15.3902 121.733 14.1187C122.64 12.9624 123.091 11.499 122.996 10.0183C123.077 9.16394 122.965 8.30195 122.668 7.49919C122.371 6.69643 121.898 5.97448 121.286 5.38933C119.801 4.29727 117.985 3.78466 116.164 3.94386H103.04L103.036 21.0534ZM114.776 12.5991H108.281V7.57505H114.819C115.283 7.50941 115.755 7.56485 116.192 7.73622C116.629 7.9076 117.017 8.18934 117.319 8.55532C117.593 9.02312 117.723 9.56523 117.69 10.11C117.715 10.6158 117.608 11.1192 117.381 11.5689C117.069 11.9544 116.665 12.2512 116.209 12.4306C115.753 12.6101 115.259 12.6663 114.776 12.5937V12.5991ZM108.938 11.9249H114.776C115.855 11.9249 116.523 11.6943 116.819 11.2197C116.982 10.8747 117.056 10.4926 117.033 10.11C117.062 9.70826 116.977 9.30655 116.789 8.95309L116.781 8.94095C116.468 8.46902 115.845 8.24924 114.819 8.24924H108.938V11.9249ZM135.668 22C129.761 22 126.235 20.4966 124.892 17.4047C124.672 16.8075 124.523 16.1855 124.447 15.5521L124.389 15.1637H131.417L131.463 15.4469C131.517 15.7344 131.637 16.005 131.811 16.237C132.088 16.5809 133.014 17.158 136.088 17.158C139.782 17.158 139.782 16.4932 139.782 16.1359C139.782 15.5332 139.354 15.3269 136.342 14.9979L135.769 14.9426C134.635 14.8334 133.201 14.6945 132.546 14.6365C127.02 14.1241 124.554 12.3645 124.554 8.93287C124.554 5.32865 128.752 3 135.25 3C140.55 3 143.966 4.43198 145.398 7.25953C145.738 7.91724 145.967 8.62947 146.073 9.36569L146.119 9.74459H139.083L139.055 9.43985C139.027 9.2017 138.928 8.97829 138.77 8.80072C138.507 8.43936 137.676 7.84203 135.094 7.84203C131.925 7.84203 131.488 8.25733 131.488 8.70499C131.488 9.30232 132.49 9.51402 135.698 9.86594C137.036 9.97786 139.187 10.2044 139.924 10.2961C144.556 10.8112 146.623 12.5276 146.623 15.8635C146.625 18.6614 144.724 22 135.668 22ZM125.157 15.8379C125.223 16.2826 125.337 16.7184 125.496 17.1377C126.719 19.9545 130.048 21.3258 135.668 21.3258C140.367 21.3258 145.971 20.3819 145.971 15.8635C145.971 12.9065 144.142 11.4422 139.854 10.9662C139.118 10.8745 136.98 10.6494 135.644 10.5361C132.224 10.1558 130.833 9.95359 130.833 8.70499C130.833 7.41324 132.332 7.16784 135.097 7.16784C137.282 7.16784 138.694 7.57235 139.293 8.38812C139.456 8.5891 139.579 8.82088 139.656 9.0704H145.358C145.243 8.54891 145.062 8.04521 144.818 7.57235C143.503 4.98481 140.289 3.67419 135.252 3.67419C129.154 3.67419 125.214 5.73856 125.214 8.93287C125.214 11.9802 127.426 13.485 132.607 13.965C133.264 14.023 134.697 14.1619 135.834 14.2724L136.41 14.3277C139.208 14.6298 140.442 14.8185 140.442 16.1359C140.442 17.5544 138.847 17.8322 136.09 17.8322C133.541 17.8322 131.93 17.4398 131.308 16.6672C131.116 16.4208 130.972 16.1394 130.882 15.8379H125.157ZM159.122 21.9771C152.254 21.9771 148.465 19.1307 148.465 13.961V3.27102H155.112V13.961C155.112 15.7341 156.66 16.7508 159.359 16.7508C161.937 16.7508 163.538 15.6896 163.538 13.9839V3.27102H170.117V14.5273C170.123 19.2614 166.112 21.9771 159.118 21.9771H159.122ZM149.123 3.94521V13.961C149.123 20.3496 155.383 21.3029 159.122 21.3029C162.987 21.3029 169.469 20.4224 169.469 14.5273V3.94521H164.207V13.9839C164.207 16.0739 162.307 17.425 159.369 17.425C156.298 17.425 154.464 16.1305 154.464 13.961V3.94521H149.123ZM197.992 21.7276H191.719V13.3946L188.162 21.7276H182.69L179.169 13.4108V21.7276H172.874V3.27102H181.155L185.457 13.4472L189.967 3.27102H198L197.992 21.7276ZM192.377 21.0534H197.334V3.94521H190.385L185.436 15.1084L180.718 3.94521H173.527V21.0534H178.506V10.1666L183.111 21.0575H187.716L192.369 10.1828L192.377 21.0534ZM7.99138 3.60812H2V21.3905H18.5559V16.6564H7.99138V3.60812ZM30.6492 3.20361C23.0014 3.20361 18.9795 6.91839 18.9795 12.3726C18.9795 18.5347 23.2014 21.6602 30.6492 21.6602C38.8482 21.6602 42.2965 18.0358 42.2965 12.3726C42.2965 6.62174 38.4061 3.20091 30.6492 3.20091V3.20361ZM30.6268 7.8245C31.1474 7.82199 31.6677 7.85306 32.1845 7.91754L25.4866 14.7821C25.1697 14.0474 25.0151 13.2498 25.0341 12.4467C25.0341 9.65694 26.4049 7.8218 30.6268 7.8218V7.8245ZM30.6492 17.1121C30.1475 17.1144 29.6463 17.0856 29.148 17.0258L35.8578 10.1491C36.1628 10.8717 36.3089 11.6543 36.2853 12.4413C36.2853 15.1556 35.0223 17.1094 30.6492 17.1094V17.1121ZM54.1674 14.685H60.3337C60.243 15.1237 60.0538 15.5345 59.7812 15.8851C58.5028 16.9525 56.8713 17.4719 55.2278 17.3346C54.4005 17.4254 53.564 17.3327 52.7748 17.063C51.9855 16.7935 51.2619 16.3531 50.6533 15.7718C50.0299 14.8346 49.7337 13.709 49.8126 12.5775C49.7117 11.392 50.0338 10.2091 50.7191 9.24838C51.5809 8.25058 53.0399 7.82045 55.1844 7.82045C56.5488 7.70467 57.9115 8.06381 59.0523 8.83983C59.4119 9.13253 59.6807 9.52603 59.8259 9.97246H65.545C65.5034 9.23688 65.3308 8.51531 65.0358 7.84338C63.6662 4.98886 60.4824 3.2899 55.0686 3.2899C50.36 3.2899 47.1998 4.76233 45.454 6.98311C44.3009 8.58682 43.709 10.5421 43.7739 12.533C43.6993 14.5691 44.2759 16.5743 45.4158 18.2434C47.1406 20.5357 50.2126 21.6629 53.9043 21.6629C56.3586 21.8383 58.7962 21.1338 60.7995 19.67L60.9547 21.3905H65.7055V10.857H54.1674V14.685ZM79.1894 3.19956C71.5429 3.19956 67.5197 6.91434 67.5197 12.3685C67.5197 18.5306 71.7403 21.6562 79.1894 21.6562C87.3897 21.6562 90.838 18.0317 90.838 12.3685C90.838 6.62174 86.9476 3.20091 79.1894 3.20091V3.19956ZM79.1683 7.82045C79.6752 7.81892 80.1817 7.84863 80.6852 7.90945L74.0137 14.7511C73.7066 14.0245 73.5571 13.2384 73.5756 12.4467C73.5703 9.65694 74.9465 7.82045 79.1683 7.82045ZM79.1894 17.1081C78.6744 17.1104 78.1599 17.0796 77.6488 17.0164L84.3808 10.1154C84.6975 10.8476 84.8491 11.6435 84.8242 12.444C84.8268 15.1556 83.5691 17.1094 79.1894 17.1094V17.1081Z" fill="#1E1E1E"/>
</svg>
