<svg width="200" height="43" viewBox="0 0 200 43" fill="none" xmlns="http://www.w3.org/2000/svg">
<path d="M31.999 19.5486C31.4553 20.0953 31.039 20.755 30.7796 21.4807C30.5203 22.2066 30.4243 22.9806 30.4985 23.7477L30.4727 23.7219C30.549 24.6249 30.427 25.5335 30.1156 26.3847C29.8042 27.2357 29.3107 28.0085 28.6697 28.6493C28.0284 29.29 27.2551 29.7833 26.4035 30.0944C25.552 30.4057 24.6426 30.5275 23.7392 30.4513L23.765 30.4771C22.6843 30.3766 21.5988 30.6115 20.6565 31.1501C19.7143 31.6887 18.9612 32.5046 18.5001 33.4866C18.0389 34.4687 17.8918 35.5688 18.0792 36.6374C18.2667 37.7059 18.7792 38.6906 19.5471 39.4573C20.315 40.224 21.3007 40.7354 22.37 40.9216C23.4394 41.108 24.5401 40.9601 25.5223 40.4983C26.5045 40.0364 27.3201 39.2832 27.8582 38.341C28.3963 37.3988 28.6305 36.3139 28.5289 35.2338L28.5562 35.2596C28.4799 34.3567 28.6017 33.4479 28.9131 32.5968C29.2245 31.7458 29.7181 30.9729 30.3592 30.3321C31.0004 29.6914 31.7737 29.1981 32.6252 28.887C33.4769 28.5758 34.3861 28.4539 35.2896 28.5302L35.2624 28.5044C36.1452 28.5837 37.0338 28.439 37.8459 28.0838C38.6578 27.7285 39.367 27.1742 39.9075 26.4721C40.448 25.7701 40.8026 24.9429 40.9381 24.0675C41.0736 23.192 40.9858 22.2966 40.6829 21.4639C40.3799 20.6314 39.8715 19.8888 39.2049 19.3049C38.5383 18.721 37.735 18.3147 36.8694 18.1238C36.0039 17.9328 35.104 17.9632 34.2534 18.2122C33.4027 18.4614 32.6288 18.921 32.0033 19.5486H31.999Z" fill="#1E1E1E"/>
<path d="M21.0605 26.6869L21.0336 26.6615C21.7913 26.7378 22.5565 26.6448 23.274 26.3891C23.9914 26.1334 24.6431 25.7216 25.1818 25.1832C25.7204 24.6449 26.1329 23.9934 26.3889 23.2761C26.6451 22.5588 26.7387 21.7936 26.663 21.0357L26.6899 21.0612C26.6146 20.1695 26.7349 19.2722 27.042 18.4318C27.3493 17.5914 27.8364 16.8283 28.469 16.1955C29.1017 15.5628 29.8648 15.0757 30.705 14.7685C31.5453 14.4611 32.4425 14.3409 33.3341 14.4161L33.3072 14.3907C34.3737 14.4909 35.4451 14.2595 36.3754 13.7283C37.3058 13.1971 38.0494 12.3917 38.5052 11.4222C38.961 10.4527 39.1067 9.36614 38.9224 8.31076C38.7381 7.25538 38.2327 6.28258 37.4752 5.52501C36.7178 4.76746 35.745 4.26202 34.6898 4.07767C33.6346 3.89332 32.5482 4.039 31.5788 4.49486C30.6093 4.95072 29.8042 5.69457 29.273 6.62494C28.7417 7.5553 28.5104 8.6269 28.6107 9.69356L28.5852 9.66666C28.6606 10.5584 28.5406 11.4558 28.2334 12.2963C27.9263 13.1368 27.4392 13.9001 26.8066 14.5329C26.1739 15.1656 25.4107 15.6527 24.5703 15.9599C23.7298 16.2671 22.8326 16.3871 21.941 16.3117L21.9664 16.3386C21.2087 16.2623 20.4434 16.3553 19.726 16.611C19.0087 16.8665 18.357 17.2784 17.8182 17.8168C17.2795 18.3552 16.8672 19.0067 16.611 19.724C16.3549 20.4413 16.2614 21.2064 16.3371 21.9644L16.3116 21.9389C16.3866 22.8304 16.2662 23.7277 15.9589 24.568C15.6514 25.4082 15.1645 26.1714 14.532 26.804C13.8993 27.4367 13.1363 27.9237 12.2962 28.2311C11.456 28.5385 10.5589 28.6589 9.6674 28.5839L9.69288 28.6094C8.62635 28.5092 7.55488 28.7405 6.62462 29.2718C5.69437 29.8031 4.95061 30.6083 4.49482 31.5779C4.03901 32.5474 3.89333 33.6339 4.07766 34.6893C4.262 35.7447 4.76738 36.7175 5.52484 37.475C6.28232 38.2326 7.255 38.738 8.31025 38.9223C9.36549 39.1067 10.4519 38.961 11.4213 38.5052C12.3907 38.0493 13.1959 37.3055 13.7271 36.3752C14.2583 35.4447 14.4896 34.3732 14.3894 33.3065L14.4163 33.332C14.341 32.4403 14.4613 31.543 14.7686 30.7026C15.0758 29.8622 15.5628 29.0991 16.1954 28.4663C16.8281 27.8336 17.5912 27.3465 18.4314 27.0393C19.2718 26.732 20.1689 26.6116 21.0605 26.6869Z" fill="#1E1E1E"/>
<path d="M11.9956 23.451C12.5394 22.9045 12.9557 22.2446 13.2149 21.5187C13.4741 20.7928 13.5697 20.0185 13.4949 19.2514L13.5222 19.2773C13.4458 18.374 13.5677 17.4648 13.8794 16.6134C14.191 15.762 14.6849 14.9889 15.3265 14.348C15.9681 13.7071 16.7419 13.2139 17.5939 12.9028C18.446 12.5918 19.3558 12.4703 20.2597 12.547L20.2324 12.5212C21.3131 12.6224 22.3987 12.388 23.3412 11.8499C24.2837 11.3119 25.037 10.4965 25.4989 9.51484C25.9606 8.53317 26.1081 7.43309 25.9213 6.36457C25.7345 5.29606 25.2223 4.31116 24.4548 3.54416C23.6874 2.77716 22.7017 2.26541 21.6326 2.0787C20.5634 1.89198 19.4625 2.0394 18.4803 2.50083C17.498 2.96225 16.682 3.71524 16.1437 4.65711C15.6053 5.59897 15.3707 6.68387 15.472 7.76384L15.4461 7.73803C15.5225 8.64111 15.4005 9.54995 15.089 10.4011C14.7776 11.2523 14.284 12.0252 13.6428 12.6661C13.0015 13.307 12.228 13.8002 11.3763 14.1114C10.5246 14.4227 9.61519 14.5446 8.71152 14.4683L8.73735 14.4941C7.85437 14.4149 6.96568 14.5599 6.15365 14.9153C5.34162 15.2708 4.63251 15.8254 4.09203 16.5277C3.55155 17.2298 3.1972 18.0571 3.06179 18.9326C2.9264 19.8082 3.01433 20.7037 3.31745 21.5362C3.62056 22.3688 4.12907 23.1114 4.79584 23.6952C5.4626 24.2792 6.26605 24.6854 7.13174 24.8764C7.99741 25.0672 8.89732 25.0367 9.74807 24.7876C10.5988 24.5384 11.3728 24.0788 11.9985 23.451H11.9956Z" fill="#1E1E1E"/>
<path d="M56 10H60V31H56V10Z" fill="#1E1E1E"/>
<path d="M63.0002 23.5298C62.9943 22.0453 63.4292 20.5922 64.2496 19.3549C65.0701 18.1177 66.2393 17.1518 67.6092 16.5796C68.9791 16.0073 70.488 15.8545 71.9448 16.1405C73.4016 16.4265 74.7408 17.1383 75.7926 18.186C76.8445 19.2336 77.5618 20.5699 77.8536 22.0255C78.1455 23.4812 77.9987 24.9907 77.432 26.3629C76.8652 27.7349 75.904 28.9081 74.67 29.7334C73.4359 30.5588 71.9848 30.9995 70.5001 30.9995C69.5147 31.0108 68.5369 30.8254 67.6238 30.4544C66.7107 30.0833 65.8808 29.534 65.1826 28.8386C64.4842 28.1431 63.9316 27.3154 63.5569 26.4039C63.1822 25.4924 62.9929 24.5153 63.0002 23.5298ZM73.7548 23.5298C73.7371 22.8898 73.5311 22.2694 73.1627 21.7458C72.7942 21.2224 72.2797 20.819 71.6833 20.5865C71.0869 20.3538 70.4352 20.302 69.8096 20.4378C69.1839 20.5736 68.6122 20.8906 68.1658 21.3496C67.7196 21.8084 67.4182 22.3887 67.3 23.0179C67.1817 23.647 67.2513 24.297 67.5004 24.8868C67.7496 25.4765 68.1669 25.9797 68.7004 26.3334C69.234 26.6872 69.86 26.8759 70.5001 26.8759C70.9385 26.8876 71.3746 26.8082 71.781 26.643C72.1872 26.4778 72.5548 26.2302 72.8606 25.9159C73.1663 25.6015 73.4037 25.2271 73.5575 24.8165C73.7115 24.4058 73.7787 23.9677 73.7548 23.5298Z" fill="#1E1E1E"/>
<path d="M94 16.4119V30.0926C94 34.9332 90.348 36.9794 86.6411 36.9794C85.336 37.0804 84.029 36.8079 82.8638 36.1918C81.6986 35.5756 80.72 34.6396 80.0353 33.4865L83.6029 31.3544C83.8907 31.9554 84.3492 32.4513 84.917 32.7757C85.4849 33.1 86.1351 33.2374 86.7804 33.1692C87.193 33.2283 87.6131 33.1908 88.0097 33.0594C88.4061 32.9279 88.7691 32.706 89.0715 32.4101C89.3739 32.1141 89.608 31.7517 89.7567 31.3494C89.9052 30.9473 89.9643 30.5158 89.9298 30.0867V28.7696C89.4402 29.3889 88.8171 29.8809 88.1102 30.2062C87.4033 30.5315 86.6326 30.681 85.8597 30.6427C84.0207 30.5827 82.2765 29.7855 80.9962 28.4194C79.7159 27.0536 79 25.2262 79 23.3243C79 21.4224 79.7159 19.595 80.9962 18.2291C82.2765 16.8631 84.0207 16.0658 85.8597 16.0059C86.6326 15.9676 87.4033 16.1171 88.1102 16.4423C88.8171 16.7676 89.4402 17.2597 89.9298 17.8789V16.409L94 16.4119ZM89.9313 23.3265C89.9594 22.6299 89.7851 21.9405 89.431 21.3471C89.077 20.7536 88.5591 20.2834 87.9443 19.9968C87.3295 19.7101 86.6459 19.6203 85.9812 19.7388C85.3165 19.8573 84.7014 20.1786 84.2149 20.6616C83.7285 21.1445 83.393 21.7669 83.2515 22.4486C83.1101 23.1303 83.1693 23.8402 83.4216 24.4868C83.6737 25.1335 84.1073 25.6874 84.6665 26.0771C85.2257 26.4669 85.885 26.6747 86.5594 26.6739C86.9988 26.7056 87.4396 26.6418 87.8537 26.4867C88.2677 26.3315 88.6457 26.0883 88.9633 25.7731C89.281 25.4577 89.5313 25.0771 89.698 24.6557C89.8647 24.2343 89.9442 23.7816 89.9313 23.3265Z" fill="#1E1E1E"/>
<path d="M97.0002 23.5298C96.9943 22.0453 97.429 20.5922 98.2496 19.3549C99.0701 18.1177 100.239 17.1518 101.609 16.5796C102.979 16.0073 104.488 15.8545 105.945 16.1405C107.402 16.4265 108.741 17.1383 109.793 18.186C110.845 19.2336 111.562 20.5699 111.854 22.0255C112.146 23.4812 111.999 24.9907 111.432 26.3629C110.865 27.7349 109.904 28.9081 108.67 29.7334C107.436 30.5588 105.985 30.9995 104.5 30.9995C103.515 31.0108 102.537 30.8254 101.624 30.4544C100.711 30.0833 99.8808 29.534 99.1826 28.8386C98.4842 28.1431 97.9316 27.3154 97.5569 26.4039C97.1822 25.4924 96.9929 24.5153 97.0002 23.5298ZM107.755 23.5298C107.737 22.8898 107.531 22.2694 107.163 21.7458C106.794 21.2224 106.28 20.819 105.683 20.5865C105.087 20.3538 104.435 20.302 103.81 20.4378C103.184 20.5736 102.612 20.8906 102.166 21.3496C101.72 21.8084 101.418 22.3887 101.3 23.0179C101.182 23.647 101.251 24.297 101.5 24.8868C101.75 25.4765 102.167 25.9797 102.7 26.3334C103.234 26.6872 103.86 26.8759 104.5 26.8759C104.938 26.8876 105.375 26.8082 105.781 26.643C106.187 26.4778 106.555 26.2302 106.861 25.9159C107.166 25.6015 107.404 25.2271 107.558 24.8165C107.711 24.4058 107.779 23.9677 107.755 23.5298Z" fill="#1E1E1E"/>
<path d="M114 12.6105C114 12.0942 114.147 11.5895 114.421 11.1602C114.696 10.7309 115.087 10.3963 115.543 10.1987C116 10.0011 116.503 9.94943 116.988 10.0502C117.473 10.1509 117.918 10.3995 118.268 10.7646C118.617 11.1297 118.856 11.5948 118.952 12.1012C119.048 12.6076 118.999 13.1325 118.81 13.6095C118.621 14.0866 118.3 14.4943 117.889 14.7811C117.478 15.068 116.995 15.2211 116.5 15.2211C115.839 15.2142 115.207 14.937 114.739 14.4489C114.272 13.9608 114.007 13.3008 114 12.6105ZM114.421 16.497H118.589V31H114.415L114.421 16.497Z" fill="#1E1E1E"/>
<path d="M136.99 23.4002C137.039 24.3256 136.904 25.2514 136.595 26.1244C136.286 26.9974 135.809 27.8005 135.19 28.4874C134.571 29.1741 133.823 29.7314 132.989 30.1268C132.155 30.5221 131.252 30.7479 130.33 30.7912C129.556 30.8337 128.782 30.7024 128.064 30.407C127.346 30.1114 126.702 29.6591 126.18 29.0828V36H122V16.3996H126.18V17.7148C126.703 17.1389 127.346 16.6869 128.064 16.3918C128.782 16.0965 129.556 15.9654 130.33 16.0078C131.252 16.0509 132.155 16.2767 132.99 16.6721C133.824 17.0675 134.572 17.6247 135.191 18.3118C135.81 18.9988 136.287 19.8022 136.596 20.6755C136.905 21.5486 137.039 22.4747 136.99 23.4002ZM132.81 23.4002C132.794 22.745 132.586 22.1091 132.211 21.5721C131.837 21.0353 131.314 20.6212 130.707 20.3819C130.099 20.1424 129.435 20.0883 128.798 20.2263C128.16 20.3642 127.577 20.6881 127.122 21.1573C126.666 21.6267 126.359 22.2204 126.237 22.8646C126.116 23.5087 126.187 24.1742 126.44 24.7783C126.694 25.3823 127.119 25.8977 127.662 26.2602C128.206 26.6225 128.843 26.8158 129.496 26.8157C129.944 26.8358 130.391 26.7604 130.808 26.5946C131.224 26.429 131.602 26.1766 131.914 25.8541C132.227 25.5315 132.469 25.1463 132.623 24.7234C132.778 24.3005 132.842 23.8495 132.81 23.4002Z" fill="#1E1E1E"/>
<path d="M150 26.3241C150 29.5854 147.164 30.9747 144.1 30.9747C142.862 31.0867 141.619 30.8252 140.532 30.2235C139.444 29.6219 138.562 28.7081 138 27.6003L141.687 25.502C141.836 26.014 142.157 26.4596 142.595 26.7639C143.033 27.0684 143.563 27.2135 144.095 27.1749C145.115 27.1749 145.626 26.8626 145.626 26.2969C145.626 24.7357 138.646 25.5593 138.646 20.6537C138.646 17.5614 141.257 16.0031 144.208 16.0031C145.317 15.968 146.415 16.231 147.388 16.7645C148.361 17.2982 149.173 18.0828 149.739 19.0367L146.108 20.9932C145.949 20.6218 145.684 20.3054 145.346 20.0835C145.007 19.8617 144.612 19.7442 144.208 19.7456C143.47 19.7456 143.016 20.0321 143.016 20.5391C143.021 22.1562 150 21.0777 150 26.3241Z" fill="#1E1E1E"/>
<path d="M166 16V30.5802H161.623V29.2091C161.118 29.8141 160.477 30.2908 159.752 30.6001C159.027 30.9094 158.24 31.0424 157.453 30.9882C154.505 30.9882 152 28.8895 152 24.9499V16H156.377V24.3093C156.34 24.6565 156.38 25.0076 156.493 25.338C156.605 25.6685 156.789 25.9704 157.031 26.2227C157.273 26.4749 157.566 26.6716 157.892 26.799C158.216 26.9263 158.565 26.9814 158.915 26.9602C160.519 26.9602 161.628 26.028 161.628 23.9573V16.0044L166 16Z" fill="#1E1E1E"/>
<path d="M190 22.0502V31H185.8V22.4286C185.8 20.9709 185.128 20.0388 183.784 20.0388C182.384 20.0388 181.599 21.0592 181.599 22.7791V31H177.401V22.4286C177.401 20.9709 176.729 20.0388 175.384 20.0388C173.984 20.0388 173.2 21.0592 173.2 22.7791V31H169V16.4224H173.2V17.7623C173.636 17.1679 174.207 16.6964 174.862 16.3912C175.518 16.0858 176.237 15.9563 176.952 16.0145C177.671 15.9778 178.386 16.1358 179.03 16.4729C179.672 16.8098 180.219 17.3145 180.619 17.9376C181.085 17.2857 181.701 16.7674 182.411 16.4311C183.121 16.0947 183.902 15.9515 184.68 16.0145C187.894 16.016 190 18.4058 190 22.0502Z" fill="#1E1E1E"/>
<path d="M193 16C194.657 16 196 14.6568 196 13C196 11.3431 194.657 10 193 10C191.343 10 190 11.3431 190 13C190 14.6568 191.343 16 193 16Z" fill="#1E1E1E"/>
</svg>
