<svg width="196" height="283" viewBox="0 0 196 283" fill="none" xmlns="http://www.w3.org/2000/svg">
<path d="M104.738 150V123.529H29.0238V121.008C29.0238 118.067 29.4444 115.476 30.2857 113.235C31.2672 110.854 32.9497 108.683 35.3333 106.723C37.7169 104.762 41.0119 103.011 45.2183 101.471C49.5648 99.7899 55.0331 98.1793 61.623 96.6387C77.3267 92.9972 88.6137 87.1149 95.4841 78.9916C102.495 70.8683 106 60.6443 106 48.3193V45.7983C106 39.916 104.878 34.2437 102.635 28.7815C100.532 23.1793 97.2368 18.2773 92.75 14.0756C88.4034 9.87395 82.9352 6.5126 76.3452 3.9916C69.7553 1.33053 62.0437 0 53.2103 0C44.9378 0 37.5066 1.40056 30.9167 4.20169C24.3267 6.86275 18.7183 10.5742 14.0913 15.3361C9.6045 19.958 6.09921 25.4202 3.5754 31.7227C1.1918 37.8852 0 44.3978 0 51.2605V63.0252H27.7619V53.7815C27.7619 45.2381 30.1455 38.5854 34.9127 33.8235C39.6799 28.9216 46.0595 26.4706 54.0516 26.4706C61.623 26.4706 67.5119 28.4314 71.7183 32.353C76.0648 36.2745 78.2381 41.1765 78.2381 47.0588C78.2381 50.1401 77.8175 52.9412 76.9762 55.4622C76.2751 57.8431 74.873 60.084 72.7698 62.1849C70.6667 64.1457 67.7923 65.9664 64.1468 67.6471C60.6415 69.1877 56.0847 70.5882 50.4762 71.8487C42.9048 73.5294 36.1045 75.6303 30.0754 78.1513C24.0463 80.5322 18.8585 83.6135 14.5119 87.395C10.3056 91.1765 7.01058 95.7983 4.62698 101.261C2.3836 106.723 1.2619 113.305 1.2619 121.008V150H104.738Z" fill="url(#paint0_linear_123_91)"/>
<path d="M129.037 64.1003C125.516 67.603 123.756 71.7363 123.756 76.5C123.756 81.2637 125.516 85.397 129.037 88.8997C132.558 92.4025 136.712 94.1539 141.5 94.1539C146.288 94.1539 150.442 92.4025 153.963 88.8997C157.484 85.397 159.244 81.2637 159.244 76.5C159.244 71.7363 157.484 67.603 153.963 64.1003C150.442 60.5975 146.288 58.8462 141.5 58.8462C136.712 58.8462 132.558 60.5975 129.037 64.1003Z" fill="url(#paint1_linear_123_91)"/>
<path fill-rule="evenodd" clip-rule="evenodd" d="M101.364 15.7624C91.7881 26.2706 87 41.0522 87 60.1071V92.8928C87 112.508 91.7881 127.43 101.364 137.658C111.081 147.886 124.46 153 141.5 153C158.54 153 171.848 147.886 181.424 137.658C191.141 127.43 196 112.508 196 92.8928V60.1071C196 41.0522 191.141 26.2706 181.424 15.7624C171.848 5.25412 158.54 0 141.5 0C124.46 0 111.081 5.25412 101.364 15.7624ZM154.174 125.468C150.795 127.01 146.57 127.78 141.5 127.78C136.43 127.78 132.205 127.01 128.826 125.468C125.446 123.787 122.7 121.475 120.587 118.533C118.475 115.591 116.996 112.088 116.151 108.025C115.306 103.962 114.884 99.478 114.884 94.5742V58.4258C114.884 53.8022 115.377 49.4588 116.362 45.3956C117.348 41.3324 118.897 37.8297 121.01 34.8874C123.122 31.9451 125.868 29.6332 129.248 27.9519C132.628 26.1305 136.712 25.2198 141.5 25.2198C146.288 25.2198 150.372 26.1305 153.752 27.9519C157.132 29.6332 159.878 31.9451 161.99 34.8874C164.103 37.8297 165.652 41.3324 166.638 45.3956C167.623 49.4588 168.116 53.8022 168.116 58.4258V94.5742C168.116 99.478 167.694 103.962 166.849 108.025C166.004 112.088 164.525 115.591 162.413 118.533C160.3 121.475 157.554 123.787 154.174 125.468Z" fill="url(#paint2_linear_123_91)"/>
<path d="M128.952 173.336V217.034H145.398C152.004 217.034 157.416 218.574 161.633 221.655C165.99 224.597 168.169 229.359 168.169 235.941C168.169 242.104 166.131 247.076 162.054 250.857C158.118 254.639 152.426 256.529 144.976 256.529C136.261 256.529 129.725 254.078 125.367 249.176C121.01 244.275 118.831 238.462 118.831 231.739V224.176H91V233C91 239.723 92.2651 246.095 94.7952 252.118C97.3253 258.14 100.91 263.462 105.548 268.084C110.327 272.706 116.09 276.347 122.837 279.008C129.584 281.669 137.104 283 145.398 283C153.55 283 160.789 281.81 167.114 279.429C173.44 277.048 178.711 273.826 182.928 269.765C187.285 265.563 190.518 260.661 192.627 255.059C194.876 249.457 196 243.364 196 236.781V234.26C196 227.538 194.805 221.725 192.416 216.824C190.026 211.782 186.863 207.58 182.928 204.218C179.133 200.857 174.705 198.406 169.645 196.866C164.584 195.185 159.454 194.345 154.253 194.345H149.193V190.563L188.41 179.218V133H92.2651V159.471H165.639V163.252L128.952 173.336Z" fill="url(#paint3_linear_123_91)"/>
<path d="M104.738 283V256.529H29.0238V254.008C29.0238 251.067 29.4444 248.476 30.2857 246.235C31.2672 243.854 32.9497 241.683 35.3333 239.723C37.7169 237.762 41.0119 236.011 45.2183 234.471C49.5648 232.79 55.0331 231.179 61.623 229.639C77.3267 225.997 88.6137 220.115 95.4841 211.992C102.495 203.868 106 193.644 106 181.319V178.798C106 172.916 104.878 167.244 102.635 161.782C100.532 156.179 97.2368 151.277 92.75 147.076C88.4034 142.874 82.9352 139.513 76.3452 136.992C69.7553 134.331 62.0437 133 53.2103 133C44.9378 133 37.5066 134.401 30.9167 137.202C24.3267 139.863 18.7183 143.574 14.0913 148.336C9.6045 152.958 6.09921 158.42 3.5754 164.723C1.1918 170.885 0 177.398 0 184.261V196.025H27.7619V186.782C27.7619 178.238 30.1455 171.585 34.9127 166.824C39.6799 161.922 46.0595 159.471 54.0516 159.471C61.623 159.471 67.5119 161.431 71.7183 165.353C76.0648 169.275 78.2381 174.176 78.2381 180.059C78.2381 183.14 77.8175 185.941 76.9762 188.462C76.2751 190.843 74.873 193.084 72.7698 195.185C70.6667 197.146 67.7923 198.966 64.1468 200.647C60.6415 202.188 56.0847 203.588 50.4762 204.849C42.9048 206.529 36.1045 208.63 30.0754 211.151C24.0463 213.532 18.8585 216.613 14.5119 220.395C10.3056 224.176 7.01058 228.798 4.62698 234.26C2.3836 239.723 1.2619 246.305 1.2619 254.008V283H104.738Z" fill="url(#paint4_linear_123_91)"/>
<defs>
<linearGradient id="paint0_linear_123_91" x1="53" y1="0" x2="53" y2="150" gradientUnits="userSpaceOnUse">
<stop stop-color="#F6F6F6"/>
<stop offset="1" stop-color="#F6F6F6" stop-opacity="0.28"/>
</linearGradient>
<linearGradient id="paint1_linear_123_91" x1="87.0052" y1="5.49536" x2="177.805" y2="153.116" gradientUnits="userSpaceOnUse">
<stop offset="0.547714" stop-color="#F6F6F6"/>
<stop offset="1" stop-color="#F6F6F6" stop-opacity="0"/>
</linearGradient>
<linearGradient id="paint2_linear_123_91" x1="87.0052" y1="5.49536" x2="177.805" y2="153.116" gradientUnits="userSpaceOnUse">
<stop offset="0.547714" stop-color="#F6F6F6"/>
<stop offset="1" stop-color="#F6F6F6" stop-opacity="0"/>
</linearGradient>
<linearGradient id="paint3_linear_123_91" x1="91" y1="133" x2="190.083" y2="299.45" gradientUnits="userSpaceOnUse">
<stop offset="0.547714" stop-color="#F6F6F6"/>
<stop offset="1" stop-color="#F6F6F6" stop-opacity="0"/>
</linearGradient>
<linearGradient id="paint4_linear_123_91" x1="53" y1="133" x2="53" y2="283" gradientUnits="userSpaceOnUse">
<stop offset="0.364583" stop-color="#F6F6F6"/>
<stop offset="1" stop-color="#F6F6F6" stop-opacity="0.33"/>
</linearGradient>
</defs>
</svg>
