<svg width="78" height="79" viewBox="0 0 78 79" fill="none" xmlns="http://www.w3.org/2000/svg">
<g clip-path="url(#clip0_77_1618)">
<path d="M45.4531 1.0101C45.4531 1.56796 45.9053 2.0202 46.4632 2.0202H47.4733C48.0312 2.0202 48.4834 1.56796 48.4834 1.0101C48.4834 0.452238 48.0312 0 47.4733 0H46.4632C45.9053 0 45.4531 0.452238 45.4531 1.0101Z" fill="white"/>
<path d="M16.1616 32.3232H21.0685L19.64 30.8947C19.2612 30.5159 18.7473 30.303 18.2116 30.303H16.1616C8.35151 30.303 2.0202 23.9717 2.0202 16.1616C2.0202 8.35151 8.35151 2.02021 16.1616 2.0202H32.3232C40.1333 2.0202 46.4646 8.35151 46.4646 16.1616C46.4646 23.9717 40.1333 30.303 32.3232 30.303H26.2775C25.4738 30.303 24.703 29.9838 24.1347 29.4155L22.4612 27.7419C21.514 26.7947 20.2293 26.2626 18.8899 26.2626H16.1616C10.5829 26.2626 6.06061 21.7403 6.06061 16.1616C6.06061 10.5829 10.5829 6.06061 16.1616 6.06061H32.3232C37.9019 6.06061 42.4242 10.5829 42.4242 16.1616C42.4242 21.7403 37.9019 26.2626 32.3232 26.2626H28.4413C27.6376 26.2626 26.8668 25.9434 26.2985 25.3751L24.6249 23.7015C23.6777 22.7543 22.3931 22.2222 21.0537 22.2222H16.1616C12.8145 22.2222 10.101 19.5088 10.101 16.1616C10.101 12.8145 12.8145 10.101 16.1616 10.101H32.3232C35.6704 10.101 38.3838 12.8145 38.3838 16.1616C38.3838 19.468 35.7362 22.156 32.4454 22.221L32.4448 22.2222H30.9665C30.1628 22.2222 29.3921 21.9029 28.8238 21.3347L27.1501 19.6611C26.373 18.8839 25.3686 18.3862 24.2932 18.2326L24.2424 18.1818H16.1616C15.0459 18.1818 14.1414 17.2773 14.1414 16.1616C14.1414 15.0459 15.0459 14.1414 16.1616 14.1414H32.3232C33.4389 14.1414 34.3434 15.0459 34.3434 16.1616C34.3434 17.2773 33.4389 18.1818 32.3232 18.1818H28.2828L29.7114 19.6103C30.0902 19.9892 30.604 20.202 31.1398 20.202H32.3232C34.5547 20.202 36.3636 18.393 36.3636 16.1616C36.3636 13.9302 34.5547 12.1212 32.3232 12.1212H16.1616C13.9302 12.1212 12.1212 13.9302 12.1212 16.1616C12.1212 18.393 13.9302 20.202 16.1616 20.202H23.5789C24.3826 20.202 25.1534 20.5213 25.7217 21.0895L27.3953 22.7632C28.3425 23.7103 29.6271 24.2424 30.9665 24.2424H32.8283V24.2269C37.0559 23.9662 40.404 20.4549 40.404 16.1616C40.404 11.6987 36.7861 8.08081 32.3232 8.08081H16.1616C11.6987 8.08081 8.08081 11.6987 8.08081 16.1616C8.08081 20.6246 11.6987 24.2424 16.1616 24.2424H21.0537C21.8574 24.2424 22.6281 24.5617 23.1964 25.1299L24.8701 26.8036C25.8172 27.7507 27.1018 28.2828 28.4413 28.2828H32.3232C39.0176 28.2828 44.4444 22.856 44.4444 16.1616C44.4444 9.46723 39.0176 4.0404 32.3232 4.0404H16.1616C9.46723 4.0404 4.0404 9.46723 4.0404 16.1616C4.0404 22.856 9.46723 28.2828 16.1616 28.2828H18.8899C19.6936 28.2828 20.4643 28.6021 21.0326 29.1703L22.7063 30.844C23.6534 31.7911 24.938 32.3232 26.2775 32.3232H32.3232C41.2491 32.3232 48.4848 25.0874 48.4848 16.1616C48.4848 7.2358 41.2491 -7.80319e-07 32.3232 0L16.1616 3.33951e-06C7.2358 4.11983e-06 -7.80319e-07 7.23581 0 16.1616C7.80319e-07 25.0874 7.23581 32.3232 16.1616 32.3232Z" fill="white"/>
</g>
<path d="M1.35035 58.8281V44.5062H4.05106V56.3729H10.5982V58.8281H1.35035ZM17.1158 59.1146C15.3154 59.1146 13.8832 58.6235 12.8193 57.6414C11.7553 56.6457 11.2234 55.2272 11.2234 53.3858V49.9485C11.2234 48.1071 11.7553 46.6954 12.8193 45.7133C13.8832 44.7176 15.3154 44.2197 17.1158 44.2197C18.9163 44.2197 20.3485 44.7176 21.4124 45.7133C22.4763 46.6954 23.0083 48.1071 23.0083 49.9485V53.3858C23.0083 55.2272 22.4763 56.6457 21.4124 57.6414C20.3485 58.6235 18.9163 59.1146 17.1158 59.1146ZM17.1158 56.7003C18.1252 56.7003 18.9095 56.407 19.4687 55.8205C20.028 55.234 20.3076 54.4497 20.3076 53.4676V49.8667C20.3076 48.8846 20.028 48.1003 19.4687 47.5138C18.9095 46.9273 18.1252 46.634 17.1158 46.634C16.1201 46.634 15.3358 46.9273 14.7629 47.5138C14.2037 48.1003 13.9241 48.8846 13.9241 49.8667V53.4676C13.9241 54.4497 14.2037 55.234 14.7629 55.8205C15.3358 56.407 16.1201 56.7003 17.1158 56.7003ZM24.968 58.8281V44.5062H30.1034L32.9473 56.9867H33.3156V44.5062H35.9754V58.8281H30.84L27.996 46.3476H27.6278V58.8281H24.968ZM37.8561 58.8281V56.4548H39.7384V46.8795H37.8561V44.5062H43.7486C45.6718 44.5062 47.1313 44.9972 48.127 45.9793C49.1364 46.9477 49.641 48.3936 49.641 50.3168V53.0175C49.641 54.9407 49.1364 56.3934 48.127 57.3755C47.1313 58.3439 45.6718 58.8281 43.7486 58.8281H37.8561ZM42.4391 56.3729H43.7895C44.8807 56.3729 45.6786 56.0865 46.1833 55.5136C46.688 54.9407 46.9403 54.136 46.9403 53.0993V50.235C46.9403 49.1847 46.688 48.3799 46.1833 47.8207C45.6786 47.2478 44.8807 46.9614 43.7895 46.9614H42.4391V56.3729ZM57.0478 59.1146C55.2474 59.1146 53.8152 58.6235 52.7513 57.6414C51.6873 56.6457 51.1554 55.2272 51.1554 53.3858V49.9485C51.1554 48.1071 51.6873 46.6954 52.7513 45.7133C53.8152 44.7176 55.2474 44.2197 57.0478 44.2197C58.8483 44.2197 60.2805 44.7176 61.3444 45.7133C62.4083 46.6954 62.9403 48.1071 62.9403 49.9485V53.3858C62.9403 55.2272 62.4083 56.6457 61.3444 57.6414C60.2805 58.6235 58.8483 59.1146 57.0478 59.1146ZM57.0478 56.7003C58.0572 56.7003 58.8415 56.407 59.4007 55.8205C59.96 55.234 60.2396 54.4497 60.2396 53.4676V49.8667C60.2396 48.8846 59.96 48.1003 59.4007 47.5138C58.8415 46.9273 58.0572 46.634 57.0478 46.634C56.0521 46.634 55.2678 46.9273 54.695 47.5138C54.1357 48.1003 53.8561 48.8846 53.8561 49.8667V53.4676C53.8561 54.4497 54.1357 55.234 54.695 55.8205C55.2678 56.407 56.0521 56.7003 57.0478 56.7003ZM64.9 58.8281V44.5062H70.0354L72.8793 56.9867H73.2476V44.5062H75.9074V58.8281H70.772L67.928 46.3476H67.5598V58.8281H64.9ZM1.35035 76.8281V62.5062H10.3527V64.9614H4.05106V68.4191H9.86168V70.8743H4.05106V76.8281H1.35035ZM11.8704 76.8281V62.5062H21.0774V64.9614H14.5711V68.3782H20.5045V70.8334H14.5711V74.3729H21.2001V76.8281H11.8704ZM27.7619 77.1146C26.657 77.1146 25.6818 76.9168 24.8361 76.5212C23.9904 76.1257 23.3289 75.5596 22.8515 74.8231C22.3741 74.0865 22.1354 73.1999 22.1354 72.1633V71.5904H24.7952V72.1633C24.7952 73.0226 25.0612 73.6705 25.5931 74.107C26.1251 74.5298 26.848 74.7412 27.7619 74.7412C28.6894 74.7412 29.3782 74.5571 29.8283 74.1888C30.2921 73.8205 30.524 73.3499 30.524 72.7771C30.524 72.3815 30.408 72.061 30.1761 71.8154C29.9579 71.5699 29.6305 71.3721 29.1941 71.2221C28.7712 71.0584 28.2529 70.9084 27.6391 70.772L27.1685 70.6697C26.1865 70.4515 25.3408 70.1787 24.6315 69.8513C23.9359 69.5103 23.3971 69.067 23.0152 68.5214C22.6469 67.9758 22.4628 67.2665 22.4628 66.3936C22.4628 65.5206 22.6673 64.7772 23.0765 64.1634C23.4994 63.536 24.0859 63.0586 24.8361 62.7312C25.5999 62.3902 26.4934 62.2197 27.5164 62.2197C28.5393 62.2197 29.4464 62.3971 30.2375 62.7517C31.0423 63.0927 31.6697 63.611 32.1198 64.3067C32.5836 64.9887 32.8155 65.848 32.8155 66.8846V67.4984H30.1557V66.8846C30.1557 66.339 30.0466 65.9025 29.8283 65.5752C29.6237 65.2342 29.3236 64.9887 28.9281 64.8386C28.5325 64.6749 28.0619 64.5931 27.5164 64.5931C26.698 64.5931 26.091 64.75 25.6954 65.0637C25.3135 65.3638 25.1225 65.7798 25.1225 66.3117C25.1225 66.6664 25.2112 66.9664 25.3885 67.212C25.5795 67.4575 25.8591 67.6621 26.2274 67.8258C26.5957 67.9894 27.0662 68.1327 27.6391 68.2554L28.1097 68.3577C29.1327 68.576 30.0193 68.8556 30.7695 69.1966C31.5333 69.5376 32.1267 69.9877 32.5495 70.5469C32.9723 71.1062 33.1837 71.8223 33.1837 72.6952C33.1837 73.5682 32.9587 74.3388 32.5086 75.0072C32.0721 75.6619 31.4447 76.1802 30.6263 76.5621C29.8215 76.9304 28.8667 77.1146 27.7619 77.1146ZM37.6437 76.8281V64.9614H33.4699V62.5062H44.5182V64.9614H40.3444V76.8281H37.6437Z" fill="white"/>
<defs>
<clipPath id="clip0_77_1618">
<rect width="48.4848" height="32.3232" fill="white"/>
</clipPath>
</defs>
</svg>
