<svg id="eTW7XKgtdb91" xmlns="http://www.w3.org/2000/svg" xmlns:xlink="http://www.w3.org/1999/xlink" viewBox="0 0 1938 38" shape-rendering="geometricPrecision" text-rendering="geometricPrecision">
<style><![CDATA[
#eTW7XKgtdb92_to {animation: eTW7XKgtdb92_to__to 3000ms linear infinite normal forwards}@keyframes eTW7XKgtdb92_to__to { 0% {transform: translate(982.948px,19px)} 100% {transform: translate(821.101011px,19px)}}
]]></style>
<g id="eTW7XKgtdb92_to" transform="translate(982.948,19)"><g transform="translate(-980,-19)"><path d="M17.052,23v-1.392h1.104v-5.616h-1.104v-1.392h4.32c.512,0,.956.088,1.332.264.384.168.68.412.888.732.216.312.324.688.324,1.128v.12c0,.384-.072.7-.216.948-.144.24-.316.428-.516.564-.192.128-.376.22-.552.276v.216c.176.048.368.14.576.276.208.128.384.316.528.564.152.248.228.572.228.972v.12c0,.464-.108.864-.324,1.2-.216.328-.516.58-.9.756-.376.176-.816.264-1.32.264h-4.368Zm2.688-1.44h1.488c.344,0,.62-.084.828-.252.216-.168.324-.408.324-.72v-.12c0-.312-.104-.552-.312-.72s-.488-.252-.84-.252h-1.488v2.064Zm0-3.504h1.464c.328,0,.596-.084.804-.252.216-.168.324-.4.324-.696v-.12c0-.304-.104-.536-.312-.696-.208-.168-.48-.252-.816-.252h-1.464v2.016Zm8.7608,5.112c-.688,0-1.28-.124-1.776-.372-.488-.256-.864-.616-1.128-1.08-.256-.472-.384-1.028-.384-1.668v-5.448h1.584v5.496c0,.512.144.916.432,1.212.296.296.72.444,1.272.444s.972-.148,1.26-.444c.296-.296.444-.7.444-1.212v-5.496h1.584v5.448c0,.64-.132,1.196-.396,1.668-.256.464-.632.824-1.128,1.08-.488.248-1.076.372-1.764.372ZM35.4833,23v-2.892L32.6273,14.6h1.764l1.776,3.6h.216l1.776-3.6h1.764l-2.856,5.508v2.892h-1.584Zm9.8386,0v-6.96h-2.448v-1.44h6.48v1.44h-2.448v6.96h-1.584Zm5.1107,0v-8.4h1.584v8.4h-1.584Zm6.3561.168c-1.04,0-1.864-.288-2.472-.864-.608-.584-.912-1.416-.912-2.496v-2.016c0-1.08.304-1.908.912-2.484.608-.584,1.432-.876,2.472-.876c1.032,0,1.828.284,2.388.852.568.56.852,1.332.852,2.316v.072h-1.56v-.12c0-.496-.14-.904-.42-1.224-.272-.32-.692-.48-1.26-.48-.56,0-1,.172-1.32.516s-.48.812-.48,1.404v2.064c0,.584.16,1.052.48,1.404.32.344.76.516,1.32.516.568,0,.988-.16,1.26-.48.28-.328.42-.736.42-1.224v-.216h1.56v.168c0,.984-.284,1.76-.852,2.328-.56.56-1.356.84-2.388.84ZM61.3193,23v-8.4h1.584v3.336h.216l2.724-3.336h2.028l-3.504,4.14L67.9913,23h-2.088l-2.784-3.408h-.216v3.408h-1.584Zm7.5118,0v-8.4h5.4v1.44h-3.816v2.004h3.48v1.44h-3.48v2.076h3.888v1.44h-5.472Zm8.5885,0v-6.96h-2.448v-1.44h6.48v1.44h-2.448v6.96h-1.584Zm7.8743.168c-.648,0-1.22-.116-1.716-.348s-.884-.564-1.164-.996-.42-.952-.42-1.56v-.336h1.56v.336c0,.504.156.884.468,1.14.312.248.736.372,1.272.372.544,0,.948-.108,1.212-.324.272-.216.408-.492.408-.828c0-.232-.068-.42-.204-.564-.128-.144-.32-.26-.576-.348-.248-.096-.552-.184-.912-.264l-.276-.06c-.576-.128-1.072-.288-1.488-.48-.408-.2-.724-.46-.948-.78-.216-.32-.324-.736-.324-1.248s.12-.948.36-1.308c.248-.368.592-.648,1.032-.84.448-.2.972-.3,1.572-.3s1.132.104,1.596.312c.472.2.84.504,1.104.912.272.4.408.904.408,1.512v.36h-1.56v-.36c0-.32-.064-.576-.192-.768-.12-.2-.296-.344-.528-.432-.232-.096-.508-.144-.828-.144-.48,0-.836.092-1.068.276-.224.176-.336.42-.336.732c0,.208.052.384.156.528.112.144.276.264.492.36s.492.18.828.252l.276.06c.6.128,1.12.292,1.56.492.448.2.796.464,1.044.792s.372.748.372,1.26-.132.964-.396,1.356c-.256.384-.624.688-1.104.912-.472.216-1.032.324-1.68.324ZM94.2829,23v-6.96h-2.448v-1.44h6.48v1.44h-2.448v6.96h-1.584Zm8.0351.168c-1.056,0-1.896-.288-2.5203-.864-.624-.584-.936-1.416-.936-2.496v-2.016c0-1.08.312-1.908.936-2.484.6243-.584,1.4643-.876,2.5203-.876s1.896.292,2.52.876c.624.576.936,1.404.936,2.484v2.016c0,1.08-.312,1.912-.936,2.496-.624.576-1.464.864-2.52.864Zm0-1.416c.592,0,1.052-.172,1.38-.516s.492-.804.492-1.38v-2.112c0-.576-.164-1.036-.492-1.38s-.788-.516-1.38-.516c-.584,0-1.044.172-1.38.516-.328.344-.492.804-.492,1.38v2.112c0,.576.164,1.036.492,1.38.336.344.796.516,1.38.516ZM106.654,23v-1.392h1.104v-5.616h-1.104v-1.392h3.456c1.128,0,1.984.288,2.568.864.592.568.888,1.416.888,2.544v1.584c0,1.128-.296,1.98-.888,2.556-.584.568-1.44.852-2.568.852h-3.456Zm2.688-1.44h.792c.64,0,1.108-.168,1.404-.504s.444-.808.444-1.416v-1.68c0-.616-.148-1.088-.444-1.416-.296-.336-.764-.504-1.404-.504h-.792v5.52ZM114.239,23l2.208-8.4h2.76l2.208,8.4h-1.632l-.456-1.848h-3L115.871,23h-1.632Zm2.46-3.312h2.256l-1.02-4.092h-.216l-1.02,4.092ZM123.714,23v-2.892L120.858,14.6h1.764l1.776,3.6h.216l1.776-3.6h1.764l-2.856,5.508v2.892h-1.584Z" fill="#fff"/><path d="M154,13.5c0,3.0376-2.462,5.5-5.5,5.5c3.038,0,5.5,2.4625,5.5,5.5c0-3.0375,2.462-5.5,5.5-5.5-3.038,0-5.5-2.4624-5.5-5.5Z" fill="#fff"/><path d="M180.052,23v-1.392h1.104v-5.616h-1.104v-1.392h4.32c.512,0,.956.088,1.332.264.384.168.68.412.888.732.216.312.324.688.324,1.128v.12c0,.384-.072.7-.216.948-.144.24-.316.428-.516.564-.192.128-.376.22-.552.276v.216c.176.048.368.14.576.276.208.128.384.316.528.564.152.248.228.572.228.972v.12c0,.464-.108.864-.324,1.2-.216.328-.516.58-.9.756-.376.176-.816.264-1.32.264h-4.368Zm2.688-1.44h1.488c.344,0,.62-.084.828-.252.216-.168.324-.408.324-.72v-.12c0-.312-.104-.552-.312-.72s-.488-.252-.84-.252h-1.488v2.064Zm0-3.504h1.464c.328,0,.596-.084.804-.252.216-.168.324-.4.324-.696v-.12c0-.304-.104-.536-.312-.696-.208-.168-.48-.252-.816-.252h-1.464v2.016Zm8.761,5.112c-.688,0-1.28-.124-1.776-.372-.488-.256-.864-.616-1.128-1.08-.256-.472-.384-1.028-.384-1.668v-5.448h1.584v5.496c0,.512.144.916.432,1.212.296.296.72.444,1.272.444s.972-.148,1.26-.444c.296-.296.444-.7.444-1.212v-5.496h1.584v5.448c0,.64-.132,1.196-.396,1.668-.256.464-.632.824-1.128,1.08-.488.248-1.076.372-1.764.372ZM198.483,23v-2.892L195.627,14.6h1.764l1.776,3.6h.216l1.776-3.6h1.764l-2.856,5.508v2.892h-1.584Zm9.839,0v-6.96h-2.448v-1.44h6.48v1.44h-2.448v6.96h-1.584Zm5.111,0v-8.4h1.584v8.4h-1.584Zm6.356.168c-1.04,0-1.864-.288-2.472-.864-.608-.584-.912-1.416-.912-2.496v-2.016c0-1.08.304-1.908.912-2.484.608-.584,1.432-.876,2.472-.876c1.032,0,1.828.284,2.388.852.568.56.852,1.332.852,2.316v.072h-1.56v-.12c0-.496-.14-.904-.42-1.224-.272-.32-.692-.48-1.26-.48-.56,0-1,.172-1.32.516s-.48.812-.48,1.404v2.064c0,.584.16,1.052.48,1.404.32.344.76.516,1.32.516.568,0,.988-.16,1.26-.48.28-.328.42-.736.42-1.224v-.216h1.56v.168c0,.984-.284,1.76-.852,2.328-.56.56-1.356.84-2.388.84Zm4.53-.168v-8.4h1.584v3.336h.216l2.724-3.336h2.028l-3.504,4.14L230.991,23h-2.088l-2.784-3.408h-.216v3.408h-1.584Zm7.512,0v-8.4h5.4v1.44h-3.816v2.004h3.48v1.44h-3.48v2.076h3.888v1.44h-5.472Zm8.589,0v-6.96h-2.448v-1.44h6.48v1.44h-2.448v6.96h-1.584Zm7.874.168c-.648,0-1.22-.116-1.716-.348s-.884-.564-1.164-.996-.42-.952-.42-1.56v-.336h1.56v.336c0,.504.156.884.468,1.14.312.248.736.372,1.272.372.544,0,.948-.108,1.212-.324.272-.216.408-.492.408-.828c0-.232-.068-.42-.204-.564-.128-.144-.32-.26-.576-.348-.248-.096-.552-.184-.912-.264l-.276-.06c-.576-.128-1.072-.288-1.488-.48-.408-.2-.724-.46-.948-.78-.216-.32-.324-.736-.324-1.248s.12-.948.36-1.308c.248-.368.592-.648,1.032-.84.448-.2.972-.3,1.572-.3s1.132.104,1.596.312c.472.2.84.504,1.104.912.272.4.408.904.408,1.512v.36h-1.56v-.36c0-.32-.064-.576-.192-.768-.12-.2-.296-.344-.528-.432-.232-.096-.508-.144-.828-.144-.48,0-.836.092-1.068.276-.224.176-.336.42-.336.732c0,.208.052.384.156.528.112.144.276.264.492.36s.492.18.828.252l.276.06c.6.128,1.12.292,1.56.492.448.2.796.464,1.044.792s.372.748.372,1.26-.132.964-.396,1.356c-.256.384-.624.688-1.104.912-.472.216-1.032.324-1.68.324ZM257.283,23v-6.96h-2.448v-1.44h6.48v1.44h-2.448v6.96h-1.584Zm8.035.168c-1.056,0-1.896-.288-2.52-.864-.624-.584-.936-1.416-.936-2.496v-2.016c0-1.08.312-1.908.936-2.484.624-.584,1.464-.876,2.52-.876s1.896.292,2.52.876c.624.576.936,1.404.936,2.484v2.016c0,1.08-.312,1.912-.936,2.496-.624.576-1.464.864-2.52.864Zm0-1.416c.592,0,1.052-.172,1.38-.516s.492-.804.492-1.38v-2.112c0-.576-.164-1.036-.492-1.38s-.788-.516-1.38-.516c-.584,0-1.044.172-1.38.516-.328.344-.492.804-.492,1.38v2.112c0,.576.164,1.036.492,1.38.336.344.796.516,1.38.516ZM269.654,23v-1.392h1.104v-5.616h-1.104v-1.392h3.456c1.128,0,1.984.288,2.568.864.592.568.888,1.416.888,2.544v1.584c0,1.128-.296,1.98-.888,2.556-.584.568-1.44.852-2.568.852h-3.456Zm2.688-1.44h.792c.64,0,1.108-.168,1.404-.504s.444-.808.444-1.416v-1.68c0-.616-.148-1.088-.444-1.416-.296-.336-.764-.504-1.404-.504h-.792v5.52ZM277.239,23l2.208-8.4h2.76l2.208,8.4h-1.632l-.456-1.848h-3L278.871,23h-1.632Zm2.46-3.312h2.256l-1.02-4.092h-.216l-1.02,4.092ZM286.714,23v-2.892L283.858,14.6h1.764l1.776,3.6h.216l1.776-3.6h1.764l-2.856,5.508v2.892h-1.584Z" fill="#fff"/><path d="M317,13.5c0,3.0376-2.462,5.5-5.5,5.5c3.038,0,5.5,2.4625,5.5,5.5c0-3.0375,2.462-5.5,5.5-5.5-3.038,0-5.5-2.4624-5.5-5.5Z" fill="#fff"/><path d="M343.052,23v-1.392h1.104v-5.616h-1.104v-1.392h4.32c.512,0,.956.088,1.332.264.384.168.68.412.888.732.216.312.324.688.324,1.128v.12c0,.384-.072.7-.216.948-.144.24-.316.428-.516.564-.192.128-.376.22-.552.276v.216c.176.048.368.14.576.276.208.128.384.316.528.564.152.248.228.572.228.972v.12c0,.464-.108.864-.324,1.2-.216.328-.516.58-.9.756-.376.176-.816.264-1.32.264h-4.368Zm2.688-1.44h1.488c.344,0,.62-.084.828-.252.216-.168.324-.408.324-.72v-.12c0-.312-.104-.552-.312-.72s-.488-.252-.84-.252h-1.488v2.064Zm0-3.504h1.464c.328,0,.596-.084.804-.252.216-.168.324-.4.324-.696v-.12c0-.304-.104-.536-.312-.696-.208-.168-.48-.252-.816-.252h-1.464v2.016Zm8.761,5.112c-.688,0-1.28-.124-1.776-.372-.488-.256-.864-.616-1.128-1.08-.256-.472-.384-1.028-.384-1.668v-5.448h1.584v5.496c0,.512.144.916.432,1.212.296.296.72.444,1.272.444s.972-.148,1.26-.444c.296-.296.444-.7.444-1.212v-5.496h1.584v5.448c0,.64-.132,1.196-.396,1.668-.256.464-.632.824-1.128,1.08-.488.248-1.076.372-1.764.372ZM361.483,23v-2.892L358.627,14.6h1.764l1.776,3.6h.216l1.776-3.6h1.764l-2.856,5.508v2.892h-1.584Zm9.839,0v-6.96h-2.448v-1.44h6.48v1.44h-2.448v6.96h-1.584Zm5.111,0v-8.4h1.584v8.4h-1.584Zm6.356.168c-1.04,0-1.864-.288-2.472-.864-.608-.584-.912-1.416-.912-2.496v-2.016c0-1.08.304-1.908.912-2.484.608-.584,1.432-.876,2.472-.876c1.032,0,1.828.284,2.388.852.568.56.852,1.332.852,2.316v.072h-1.56v-.12c0-.496-.14-.904-.42-1.224-.272-.32-.692-.48-1.26-.48-.56,0-1,.172-1.32.516s-.48.812-.48,1.404v2.064c0,.584.16,1.052.48,1.404.32.344.76.516,1.32.516.568,0,.988-.16,1.26-.48.28-.328.42-.736.42-1.224v-.216h1.56v.168c0,.984-.284,1.76-.852,2.328-.56.56-1.356.84-2.388.84Zm4.53-.168v-8.4h1.584v3.336h.216l2.724-3.336h2.028l-3.504,4.14L393.991,23h-2.088l-2.784-3.408h-.216v3.408h-1.584Zm7.512,0v-8.4h5.4v1.44h-3.816v2.004h3.48v1.44h-3.48v2.076h3.888v1.44h-5.472Zm8.589,0v-6.96h-2.448v-1.44h6.48v1.44h-2.448v6.96h-1.584Zm7.874.168c-.648,0-1.22-.116-1.716-.348s-.884-.564-1.164-.996-.42-.952-.42-1.56v-.336h1.56v.336c0,.504.156.884.468,1.14.312.248.736.372,1.272.372.544,0,.948-.108,1.212-.324.272-.216.408-.492.408-.828c0-.232-.068-.42-.204-.564-.128-.144-.32-.26-.576-.348-.248-.096-.552-.184-.912-.264l-.276-.06c-.576-.128-1.072-.288-1.488-.48-.408-.2-.724-.46-.948-.78-.216-.32-.324-.736-.324-1.248s.12-.948.36-1.308c.248-.368.592-.648,1.032-.84.448-.2.972-.3,1.572-.3s1.132.104,1.596.312c.472.2.84.504,1.104.912.272.4.408.904.408,1.512v.36h-1.56v-.36c0-.32-.064-.576-.192-.768-.12-.2-.296-.344-.528-.432-.232-.096-.508-.144-.828-.144-.48,0-.836.092-1.068.276-.224.176-.336.42-.336.732c0,.208.052.384.156.528.112.144.276.264.492.36s.492.18.828.252l.276.06c.6.128,1.12.292,1.56.492.448.2.796.464,1.044.792s.372.748.372,1.26-.132.964-.396,1.356c-.256.384-.624.688-1.104.912-.472.216-1.032.324-1.68.324ZM420.283,23v-6.96h-2.448v-1.44h6.48v1.44h-2.448v6.96h-1.584Zm8.035.168c-1.056,0-1.896-.288-2.52-.864-.624-.584-.936-1.416-.936-2.496v-2.016c0-1.08.312-1.908.936-2.484.624-.584,1.464-.876,2.52-.876s1.896.292,2.52.876c.624.576.936,1.404.936,2.484v2.016c0,1.08-.312,1.912-.936,2.496-.624.576-1.464.864-2.52.864Zm0-1.416c.592,0,1.052-.172,1.38-.516s.492-.804.492-1.38v-2.112c0-.576-.164-1.036-.492-1.38s-.788-.516-1.38-.516c-.584,0-1.044.172-1.38.516-.328.344-.492.804-.492,1.38v2.112c0,.576.164,1.036.492,1.38.336.344.796.516,1.38.516ZM432.654,23v-1.392h1.104v-5.616h-1.104v-1.392h3.456c1.128,0,1.984.288,2.568.864.592.568.888,1.416.888,2.544v1.584c0,1.128-.296,1.98-.888,2.556-.584.568-1.44.852-2.568.852h-3.456Zm2.688-1.44h.792c.64,0,1.108-.168,1.404-.504s.444-.808.444-1.416v-1.68c0-.616-.148-1.088-.444-1.416-.296-.336-.764-.504-1.404-.504h-.792v5.52ZM440.239,23l2.208-8.4h2.76l2.208,8.4h-1.632l-.456-1.848h-3L441.871,23h-1.632Zm2.46-3.312h2.256l-1.02-4.092h-.216l-1.02,4.092ZM449.714,23v-2.892L446.858,14.6h1.764l1.776,3.6h.216l1.776-3.6h1.764l-2.856,5.508v2.892h-1.584Z" fill="#fff"/><path d="M480,13.5c0,3.0376-2.462,5.5-5.5,5.5c3.038,0,5.5,2.4625,5.5,5.5c0-3.0375,2.462-5.5,5.5-5.5-3.038,0-5.5-2.4624-5.5-5.5Z" fill="#fff"/><path d="M506.052,23v-1.392h1.104v-5.616h-1.104v-1.392h4.32c.512,0,.956.088,1.332.264.384.168.68.412.888.732.216.312.324.688.324,1.128v.12c0,.384-.072.7-.216.948-.144.24-.316.428-.516.564-.192.128-.376.22-.552.276v.216c.176.048.368.14.576.276.208.128.384.316.528.564.152.248.228.572.228.972v.12c0,.464-.108.864-.324,1.2-.216.328-.516.58-.9.756-.376.176-.816.264-1.32.264h-4.368Zm2.688-1.44h1.488c.344,0,.62-.084.828-.252.216-.168.324-.408.324-.72v-.12c0-.312-.104-.552-.312-.72s-.488-.252-.84-.252h-1.488v2.064Zm0-3.504h1.464c.328,0,.596-.084.804-.252.216-.168.324-.4.324-.696v-.12c0-.304-.104-.536-.312-.696-.208-.168-.48-.252-.816-.252h-1.464v2.016Zm8.761,5.112c-.688,0-1.28-.124-1.776-.372-.488-.256-.864-.616-1.128-1.08-.256-.472-.384-1.028-.384-1.668v-5.448h1.584v5.496c0,.512.144.916.432,1.212.296.296.72.444,1.272.444s.972-.148,1.26-.444c.296-.296.444-.7.444-1.212v-5.496h1.584v5.448c0,.64-.132,1.196-.396,1.668-.256.464-.632.824-1.128,1.08-.488.248-1.076.372-1.764.372ZM524.483,23v-2.892L521.627,14.6h1.764l1.776,3.6h.216l1.776-3.6h1.764l-2.856,5.508v2.892h-1.584Zm9.839,0v-6.96h-2.448v-1.44h6.48v1.44h-2.448v6.96h-1.584Zm5.111,0v-8.4h1.584v8.4h-1.584Zm6.356.168c-1.04,0-1.864-.288-2.472-.864-.608-.584-.912-1.416-.912-2.496v-2.016c0-1.08.304-1.908.912-2.484.608-.584,1.432-.876,2.472-.876c1.032,0,1.828.284,2.388.852.568.56.852,1.332.852,2.316v.072h-1.56v-.12c0-.496-.14-.904-.42-1.224-.272-.32-.692-.48-1.26-.48-.56,0-1,.172-1.32.516s-.48.812-.48,1.404v2.064c0,.584.16,1.052.48,1.404.32.344.76.516,1.32.516.568,0,.988-.16,1.26-.48.28-.328.42-.736.42-1.224v-.216h1.56v.168c0,.984-.284,1.76-.852,2.328-.56.56-1.356.84-2.388.84Zm4.53-.168v-8.4h1.584v3.336h.216l2.724-3.336h2.028l-3.504,4.14L556.991,23h-2.088l-2.784-3.408h-.216v3.408h-1.584Zm7.512,0v-8.4h5.4v1.44h-3.816v2.004h3.48v1.44h-3.48v2.076h3.888v1.44h-5.472Zm8.589,0v-6.96h-2.448v-1.44h6.48v1.44h-2.448v6.96h-1.584Zm7.874.168c-.648,0-1.22-.116-1.716-.348s-.884-.564-1.164-.996-.42-.952-.42-1.56v-.336h1.56v.336c0,.504.156.884.468,1.14.312.248.736.372,1.272.372.544,0,.948-.108,1.212-.324.272-.216.408-.492.408-.828c0-.232-.068-.42-.204-.564-.128-.144-.32-.26-.576-.348-.248-.096-.552-.184-.912-.264l-.276-.06c-.576-.128-1.072-.288-1.488-.48-.408-.2-.724-.46-.948-.78-.216-.32-.324-.736-.324-1.248s.12-.948.36-1.308c.248-.368.592-.648,1.032-.84.448-.2.972-.3,1.572-.3s1.132.104,1.596.312c.472.2.84.504,1.104.912.272.4.408.904.408,1.512v.36h-1.56v-.36c0-.32-.064-.576-.192-.768-.12-.2-.296-.344-.528-.432-.232-.096-.508-.144-.828-.144-.48,0-.836.092-1.068.276-.224.176-.336.42-.336.732c0,.208.052.384.156.528.112.144.276.264.492.36s.492.18.828.252l.276.06c.6.128,1.12.292,1.56.492.448.2.796.464,1.044.792s.372.748.372,1.26-.132.964-.396,1.356c-.256.384-.624.688-1.104.912-.472.216-1.032.324-1.68.324ZM583.283,23v-6.96h-2.448v-1.44h6.48v1.44h-2.448v6.96h-1.584Zm8.035.168c-1.056,0-1.896-.288-2.52-.864-.624-.584-.936-1.416-.936-2.496v-2.016c0-1.08.312-1.908.936-2.484.624-.584,1.464-.876,2.52-.876s1.896.292,2.52.876c.624.576.936,1.404.936,2.484v2.016c0,1.08-.312,1.912-.936,2.496-.624.576-1.464.864-2.52.864Zm0-1.416c.592,0,1.052-.172,1.38-.516s.492-.804.492-1.38v-2.112c0-.576-.164-1.036-.492-1.38s-.788-.516-1.38-.516c-.584,0-1.044.172-1.38.516-.328.344-.492.804-.492,1.38v2.112c0,.576.164,1.036.492,1.38.336.344.796.516,1.38.516ZM595.654,23v-1.392h1.104v-5.616h-1.104v-1.392h3.456c1.128,0,1.984.288,2.568.864.592.568.888,1.416.888,2.544v1.584c0,1.128-.296,1.98-.888,2.556-.584.568-1.44.852-2.568.852h-3.456Zm2.688-1.44h.792c.64,0,1.108-.168,1.404-.504s.444-.808.444-1.416v-1.68c0-.616-.148-1.088-.444-1.416-.296-.336-.764-.504-1.404-.504h-.792v5.52ZM603.239,23l2.208-8.4h2.76l2.208,8.4h-1.632l-.456-1.848h-3L604.871,23h-1.632Zm2.46-3.312h2.256l-1.02-4.092h-.216l-1.02,4.092ZM612.714,23v-2.892L609.858,14.6h1.764l1.776,3.6h.216l1.776-3.6h1.764l-2.856,5.508v2.892h-1.584Z" fill="#fff"/><path d="M643,13.5c0,3.0376-2.462,5.5-5.5,5.5c3.038,0,5.5,2.4625,5.5,5.5c0-3.0375,2.462-5.5,5.5-5.5-3.038,0-5.5-2.4624-5.5-5.5Z" fill="#fff"/><path d="M669.052,23v-1.392h1.104v-5.616h-1.104v-1.392h4.32c.512,0,.956.088,1.332.264.384.168.68.412.888.732.216.312.324.688.324,1.128v.12c0,.384-.072.7-.216.948-.144.24-.316.428-.516.564-.192.128-.376.22-.552.276v.216c.176.048.368.14.576.276.208.128.384.316.528.564.152.248.228.572.228.972v.12c0,.464-.108.864-.324,1.2-.216.328-.516.58-.9.756-.376.176-.816.264-1.32.264h-4.368Zm2.688-1.44h1.488c.344,0,.62-.084.828-.252.216-.168.324-.408.324-.72v-.12c0-.312-.104-.552-.312-.72s-.488-.252-.84-.252h-1.488v2.064Zm0-3.504h1.464c.328,0,.596-.084.804-.252.216-.168.324-.4.324-.696v-.12c0-.304-.104-.536-.312-.696-.208-.168-.48-.252-.816-.252h-1.464v2.016Zm8.761,5.112c-.688,0-1.28-.124-1.776-.372-.488-.256-.864-.616-1.128-1.08-.256-.472-.384-1.028-.384-1.668v-5.448h1.584v5.496c0,.512.144.916.432,1.212.296.296.72.444,1.272.444s.972-.148,1.26-.444c.296-.296.444-.7.444-1.212v-5.496h1.584v5.448c0,.64-.132,1.196-.396,1.668-.256.464-.632.824-1.128,1.08-.488.248-1.076.372-1.764.372ZM687.483,23v-2.892L684.627,14.6h1.764l1.776,3.6h.216l1.776-3.6h1.764l-2.856,5.508v2.892h-1.584Zm9.839,0v-6.96h-2.448v-1.44h6.48v1.44h-2.448v6.96h-1.584Zm5.111,0v-8.4h1.584v8.4h-1.584Zm6.356.168c-1.04,0-1.864-.288-2.472-.864-.608-.584-.912-1.416-.912-2.496v-2.016c0-1.08.304-1.908.912-2.484.608-.584,1.432-.876,2.472-.876c1.032,0,1.828.284,2.388.852.568.56.852,1.332.852,2.316v.072h-1.56v-.12c0-.496-.14-.904-.42-1.224-.272-.32-.692-.48-1.26-.48-.56,0-1,.172-1.32.516s-.48.812-.48,1.404v2.064c0,.584.16,1.052.48,1.404.32.344.76.516,1.32.516.568,0,.988-.16,1.26-.48.28-.328.42-.736.42-1.224v-.216h1.56v.168c0,.984-.284,1.76-.852,2.328-.56.56-1.356.84-2.388.84Zm4.53-.168v-8.4h1.584v3.336h.216l2.724-3.336h2.028l-3.504,4.14L719.991,23h-2.088l-2.784-3.408h-.216v3.408h-1.584Zm7.512,0v-8.4h5.4v1.44h-3.816v2.004h3.48v1.44h-3.48v2.076h3.888v1.44h-5.472Zm8.589,0v-6.96h-2.448v-1.44h6.48v1.44h-2.448v6.96h-1.584Zm7.874.168c-.648,0-1.22-.116-1.716-.348s-.884-.564-1.164-.996-.42-.952-.42-1.56v-.336h1.56v.336c0,.504.156.884.468,1.14.312.248.736.372,1.272.372.544,0,.948-.108,1.212-.324.272-.216.408-.492.408-.828c0-.232-.068-.42-.204-.564-.128-.144-.32-.26-.576-.348-.248-.096-.552-.184-.912-.264l-.276-.06c-.576-.128-1.072-.288-1.488-.48-.408-.2-.724-.46-.948-.78-.216-.32-.324-.736-.324-1.248s.12-.948.36-1.308c.248-.368.592-.648,1.032-.84.448-.2.972-.3,1.572-.3s1.132.104,1.596.312c.472.2.84.504,1.104.912.272.4.408.904.408,1.512v.36h-1.56v-.36c0-.32-.064-.576-.192-.768-.12-.2-.296-.344-.528-.432-.232-.096-.508-.144-.828-.144-.48,0-.836.092-1.068.276-.224.176-.336.42-.336.732c0,.208.052.384.156.528.112.144.276.264.492.36s.492.18.828.252l.276.06c.6.128,1.12.292,1.56.492.448.2.796.464,1.044.792s.372.748.372,1.26-.132.964-.396,1.356c-.256.384-.624.688-1.104.912-.472.216-1.032.324-1.68.324ZM746.283,23v-6.96h-2.448v-1.44h6.48v1.44h-2.448v6.96h-1.584Zm8.035.168c-1.056,0-1.896-.288-2.52-.864-.624-.584-.936-1.416-.936-2.496v-2.016c0-1.08.312-1.908.936-2.484.624-.584,1.464-.876,2.52-.876s1.896.292,2.52.876c.624.576.936,1.404.936,2.484v2.016c0,1.08-.312,1.912-.936,2.496-.624.576-1.464.864-2.52.864Zm0-1.416c.592,0,1.052-.172,1.38-.516s.492-.804.492-1.38v-2.112c0-.576-.164-1.036-.492-1.38s-.788-.516-1.38-.516c-.584,0-1.044.172-1.38.516-.328.344-.492.804-.492,1.38v2.112c0,.576.164,1.036.492,1.38.336.344.796.516,1.38.516ZM758.654,23v-1.392h1.104v-5.616h-1.104v-1.392h3.456c1.128,0,1.984.288,2.568.864.592.568.888,1.416.888,2.544v1.584c0,1.128-.296,1.98-.888,2.556-.584.568-1.44.852-2.568.852h-3.456Zm2.688-1.44h.792c.64,0,1.108-.168,1.404-.504s.444-.808.444-1.416v-1.68c0-.616-.148-1.088-.444-1.416-.296-.336-.764-.504-1.404-.504h-.792v5.52ZM766.239,23l2.208-8.4h2.76l2.208,8.4h-1.632l-.456-1.848h-3L767.871,23h-1.632Zm2.46-3.312h2.256l-1.02-4.092h-.216l-1.02,4.092ZM775.714,23v-2.892L772.858,14.6h1.764l1.776,3.6h.216l1.776-3.6h1.764l-2.856,5.508v2.892h-1.584Z" fill="#fff"/><path d="M806,13.5c0,3.0376-2.462,5.5-5.5,5.5c3.038,0,5.5,2.4625,5.5,5.5c0-3.0375,2.462-5.5,5.5-5.5-3.038,0-5.5-2.4624-5.5-5.5Z" fill="#fff"/><path d="M832.052,23v-1.392h1.104v-5.616h-1.104v-1.392h4.32c.512,0,.956.088,1.332.264.384.168.68.412.888.732.216.312.324.688.324,1.128v.12c0,.384-.072.7-.216.948-.144.24-.316.428-.516.564-.192.128-.376.22-.552.276v.216c.176.048.368.14.576.276.208.128.384.316.528.564.152.248.228.572.228.972v.12c0,.464-.108.864-.324,1.2-.216.328-.516.58-.9.756-.376.176-.816.264-1.32.264h-4.368Zm2.688-1.44h1.488c.344,0,.62-.084.828-.252.216-.168.324-.408.324-.72v-.12c0-.312-.104-.552-.312-.72s-.488-.252-.84-.252h-1.488v2.064Zm0-3.504h1.464c.328,0,.596-.084.804-.252.216-.168.324-.4.324-.696v-.12c0-.304-.104-.536-.312-.696-.208-.168-.48-.252-.816-.252h-1.464v2.016Zm8.761,5.112c-.688,0-1.28-.124-1.776-.372-.488-.256-.864-.616-1.128-1.08-.256-.472-.384-1.028-.384-1.668v-5.448h1.584v5.496c0,.512.144.916.432,1.212.296.296.72.444,1.272.444s.972-.148,1.26-.444c.296-.296.444-.7.444-1.212v-5.496h1.584v5.448c0,.64-.132,1.196-.396,1.668-.256.464-.632.824-1.128,1.08-.488.248-1.076.372-1.764.372ZM850.483,23v-2.892L847.627,14.6h1.764l1.776,3.6h.216l1.776-3.6h1.764l-2.856,5.508v2.892h-1.584Zm9.839,0v-6.96h-2.448v-1.44h6.48v1.44h-2.448v6.96h-1.584Zm5.111,0v-8.4h1.584v8.4h-1.584Zm6.356.168c-1.04,0-1.864-.288-2.472-.864-.608-.584-.912-1.416-.912-2.496v-2.016c0-1.08.304-1.908.912-2.484.608-.584,1.432-.876,2.472-.876c1.032,0,1.828.284,2.388.852.568.56.852,1.332.852,2.316v.072h-1.56v-.12c0-.496-.14-.904-.42-1.224-.272-.32-.692-.48-1.26-.48-.56,0-1,.172-1.32.516s-.48.812-.48,1.404v2.064c0,.584.16,1.052.48,1.404.32.344.76.516,1.32.516.568,0,.988-.16,1.26-.48.28-.328.42-.736.42-1.224v-.216h1.56v.168c0,.984-.284,1.76-.852,2.328-.56.56-1.356.84-2.388.84Zm4.53-.168v-8.4h1.584v3.336h.216l2.724-3.336h2.028l-3.504,4.14L882.991,23h-2.088l-2.784-3.408h-.216v3.408h-1.584Zm7.512,0v-8.4h5.4v1.44h-3.816v2.004h3.48v1.44h-3.48v2.076h3.888v1.44h-5.472Zm8.589,0v-6.96h-2.448v-1.44h6.48v1.44h-2.448v6.96h-1.584Zm7.874.168c-.648,0-1.22-.116-1.716-.348s-.884-.564-1.164-.996-.42-.952-.42-1.56v-.336h1.56v.336c0,.504.156.884.468,1.14.312.248.736.372,1.272.372.544,0,.948-.108,1.212-.324.272-.216.408-.492.408-.828c0-.232-.068-.42-.204-.564-.128-.144-.32-.26-.576-.348-.248-.096-.552-.184-.912-.264l-.276-.06c-.576-.128-1.072-.288-1.488-.48-.408-.2-.724-.46-.948-.78-.216-.32-.324-.736-.324-1.248s.12-.948.36-1.308c.248-.368.592-.648,1.032-.84.448-.2.972-.3,1.572-.3s1.132.104,1.596.312c.472.2.84.504,1.104.912.272.4.408.904.408,1.512v.36h-1.56v-.36c0-.32-.064-.576-.192-.768-.12-.2-.296-.344-.528-.432-.232-.096-.508-.144-.828-.144-.48,0-.836.092-1.068.276-.224.176-.336.42-.336.732c0,.208.052.384.156.528.112.144.276.264.492.36s.492.18.828.252l.276.06c.6.128,1.12.292,1.56.492.448.2.796.464,1.044.792s.372.748.372,1.26-.132.964-.396,1.356c-.256.384-.624.688-1.104.912-.472.216-1.032.324-1.68.324ZM909.283,23v-6.96h-2.448v-1.44h6.48v1.44h-2.448v6.96h-1.584Zm8.035.168c-1.056,0-1.896-.288-2.52-.864-.624-.584-.936-1.416-.936-2.496v-2.016c0-1.08.312-1.908.936-2.484.624-.584,1.464-.876,2.52-.876s1.896.292,2.52.876c.624.576.936,1.404.936,2.484v2.016c0,1.08-.312,1.912-.936,2.496-.624.576-1.464.864-2.52.864Zm0-1.416c.592,0,1.052-.172,1.38-.516s.492-.804.492-1.38v-2.112c0-.576-.164-1.036-.492-1.38s-.788-.516-1.38-.516c-.584,0-1.044.172-1.38.516-.328.344-.492.804-.492,1.38v2.112c0,.576.164,1.036.492,1.38.336.344.796.516,1.38.516ZM921.654,23v-1.392h1.104v-5.616h-1.104v-1.392h3.456c1.128,0,1.984.288,2.568.864.592.568.888,1.416.888,2.544v1.584c0,1.128-.296,1.98-.888,2.556-.584.568-1.44.852-2.568.852h-3.456Zm2.688-1.44h.792c.64,0,1.108-.168,1.404-.504s.444-.808.444-1.416v-1.68c0-.616-.148-1.088-.444-1.416-.296-.336-.764-.504-1.404-.504h-.792v5.52ZM929.239,23l2.208-8.4h2.76l2.208,8.4h-1.632l-.456-1.848h-3L930.871,23h-1.632Zm2.46-3.312h2.256l-1.02-4.092h-.216l-1.02,4.092ZM938.714,23v-2.892L935.858,14.6h1.764l1.776,3.6h.216l1.776-3.6h1.764l-2.856,5.508v2.892h-1.584Z" fill="#fff"/><path d="M969,13.5c0,3.0376-2.462,5.5-5.5,5.5c3.038,0,5.5,2.4625,5.5,5.5c0-3.0375,2.462-5.5,5.5-5.5-3.038,0-5.5-2.4624-5.5-5.5Z" fill="#fff"/><path d="M995.052,23v-1.392h1.104v-5.616h-1.104v-1.392h4.32c.512,0,.958.088,1.328.264.39.168.68.412.89.732.22.312.33.688.33,1.128v.12c0,.384-.08.7-.22.948-.14.24-.32.428-.52.564-.19.128-.37.22-.55.276v.216c.18.048.37.14.58.276.21.128.38.316.53.564s.22.572.22.972v.12c0,.464-.1.864-.32,1.2-.22.328-.52.58-.9.756s-.816.264-1.32.264h-4.368Zm2.688-1.44h1.488c.344,0,.62-.084.832-.252.21-.168.32-.408.32-.72v-.12c0-.312-.1-.552-.31-.72s-.49-.252-.842-.252h-1.488v2.064Zm0-3.504h1.464c.328,0,.596-.084.806-.252s.32-.4.32-.696v-.12c0-.304-.1-.536-.31-.696-.208-.168-.48-.252-.816-.252h-1.464v2.016Zm8.76,5.112c-.69,0-1.28-.124-1.78-.372-.48-.256-.86-.616-1.12-1.08-.26-.472-.39-1.028-.39-1.668v-5.448h1.59v5.496c0,.512.14.916.43,1.212s.72.444,1.27.444.97-.148,1.26-.444c.3-.296.44-.7.44-1.212v-5.496h1.59v5.448c0,.64-.13,1.196-.4,1.668-.25.464-.63.824-1.13,1.08-.48.248-1.07.372-1.76.372Zm6.98-.168v-2.892l-2.85-5.508h1.76l1.78,3.6h.21l1.78-3.6h1.76l-2.85,5.508v2.892h-1.59Zm9.84,0v-6.96h-2.45v-1.44h6.48v1.44h-2.44v6.96h-1.59Zm5.11,0v-8.4h1.59v8.4h-1.59Zm6.36.168c-1.04,0-1.87-.288-2.47-.864-.61-.584-.92-1.416-.92-2.496v-2.016c0-1.08.31-1.908.92-2.484.6-.584,1.43-.876,2.47-.876c1.03,0,1.83.284,2.39.852.56.56.85,1.332.85,2.316v.072h-1.56v-.12c0-.496-.14-.904-.42-1.224-.27-.32-.69-.48-1.26-.48-.56,0-1,.172-1.32.516s-.48.812-.48,1.404v2.064c0,.584.16,1.052.48,1.404.32.344.76.516,1.32.516.57,0,.99-.16,1.26-.48.28-.328.42-.736.42-1.224v-.216h1.56v.168c0,.984-.29,1.76-.85,2.328-.56.56-1.36.84-2.39.84Zm4.53-.168v-8.4h1.58v3.336h.22l2.72-3.336h2.03l-3.5,4.14l3.62,4.26h-2.09l-2.78-3.408h-.22v3.408h-1.58Zm7.51,0v-8.4h5.4v1.44h-3.81v2.004h3.48v1.44h-3.48v2.076h3.88v1.44h-5.47Zm8.59,0v-6.96h-2.45v-1.44h6.48v1.44h-2.45v6.96h-1.58Zm7.87.168c-.64,0-1.22-.116-1.71-.348-.5-.232-.89-.564-1.17-.996s-.42-.952-.42-1.56v-.336h1.56v.336c0,.504.16.884.47,1.14.31.248.74.372,1.27.372.55,0,.95-.108,1.22-.324s.4-.492.4-.828c0-.232-.06-.42-.2-.564-.13-.144-.32-.26-.58-.348-.24-.096-.55-.184-.91-.264l-.27-.06c-.58-.128-1.08-.288-1.49-.48-.41-.2-.73-.46-.95-.78s-.32-.736-.32-1.248.12-.948.36-1.308c.24-.368.59-.648,1.03-.84.45-.2.97-.3,1.57-.3s1.13.104,1.6.312c.47.2.84.504,1.1.912.27.4.41.904.41,1.512v.36h-1.56v-.36c0-.32-.07-.576-.19-.768-.12-.2-.3-.344-.53-.432-.23-.096-.51-.144-.83-.144-.48,0-.84.092-1.07.276-.22.176-.33.42-.33.732c0,.208.05.384.15.528.11.144.28.264.49.36.22.096.5.18.83.252l.28.06c.6.128,1.12.292,1.56.492.45.2.79.464,1.04.792s.37.748.37,1.26-.13.964-.39,1.356c-.26.384-.63.688-1.11.912-.47.216-1.03.324-1.68.324Zm8.99-.168v-6.96h-2.45v-1.44h6.48v1.44h-2.44v6.96h-1.59Zm8.04.168c-1.06,0-1.9-.288-2.52-.864-.63-.584-.94-1.416-.94-2.496v-2.016c0-1.08.31-1.908.94-2.484.62-.584,1.46-.876,2.52-.876c1.05,0,1.89.292,2.52.876.62.576.93,1.404.93,2.484v2.016c0,1.08-.31,1.912-.93,2.496-.63.576-1.47.864-2.52.864Zm0-1.416c.59,0,1.05-.172,1.38-.516s.49-.804.49-1.38v-2.112c0-.576-.16-1.036-.49-1.38s-.79-.516-1.38-.516-1.05.172-1.38.516-.49.804-.49,1.38v2.112c0,.576.16,1.036.49,1.38s.79.516,1.38.516ZM1084.65,23v-1.392h1.11v-5.616h-1.11v-1.392h3.46c1.13,0,1.98.288,2.57.864.59.568.89,1.416.89,2.544v1.584c0,1.128-.3,1.98-.89,2.556-.59.568-1.44.852-2.57.852h-3.46Zm2.69-1.44h.79c.64,0,1.11-.168,1.41-.504.29-.336.44-.808.44-1.416v-1.68c0-.616-.15-1.088-.44-1.416-.3-.336-.77-.504-1.41-.504h-.79v5.52Zm4.9,1.44l2.21-8.4h2.76l2.21,8.4h-1.64l-.45-1.848h-3L1093.87,23h-1.63Zm2.46-3.312h2.26l-1.02-4.092h-.22l-1.02,4.092ZM1101.71,23v-2.892l-2.85-5.508h1.76l1.78,3.6h.21l1.78-3.6h1.76l-2.85,5.508v2.892h-1.59Z" fill="#fff"/><path d="M1132,13.5c0,3.0376-2.46,5.5-5.5,5.5c3.04,0,5.5,2.4625,5.5,5.5c0-3.0375,2.46-5.5,5.5-5.5-3.04,0-5.5-2.4624-5.5-5.5Z" fill="#fff"/><path d="M1158.05,23v-1.392h1.11v-5.616h-1.11v-1.392h4.32c.51,0,.96.088,1.33.264.39.168.68.412.89.732.22.312.33.688.33,1.128v.12c0,.384-.08.7-.22.948-.14.24-.32.428-.52.564-.19.128-.37.22-.55.276v.216c.18.048.37.14.58.276.21.128.38.316.53.564s.22.572.22.972v.12c0,.464-.1.864-.32,1.2-.22.328-.52.58-.9.756s-.82.264-1.32.264h-4.37Zm2.69-1.44h1.49c.34,0,.62-.084.83-.252s.32-.408.32-.72v-.12c0-.312-.1-.552-.31-.72s-.49-.252-.84-.252h-1.49v2.064Zm0-3.504h1.46c.33,0,.6-.084.81-.252s.32-.4.32-.696v-.12c0-.304-.1-.536-.31-.696-.21-.168-.48-.252-.82-.252h-1.46v2.016Zm8.76,5.112c-.69,0-1.28-.124-1.78-.372-.48-.256-.86-.616-1.12-1.08-.26-.472-.39-1.028-.39-1.668v-5.448h1.59v5.496c0,.512.14.916.43,1.212s.72.444,1.27.444.97-.148,1.26-.444c.3-.296.44-.7.44-1.212v-5.496h1.59v5.448c0,.64-.13,1.196-.4,1.668-.25.464-.63.824-1.13,1.08-.48.248-1.07.372-1.76.372Zm6.98-.168v-2.892l-2.85-5.508h1.76l1.78,3.6h.21l1.78-3.6h1.76l-2.85,5.508v2.892h-1.59Zm9.84,0v-6.96h-2.45v-1.44h6.48v1.44h-2.44v6.96h-1.59Zm5.11,0v-8.4h1.59v8.4h-1.59Zm6.36.168c-1.04,0-1.87-.288-2.47-.864-.61-.584-.92-1.416-.92-2.496v-2.016c0-1.08.31-1.908.92-2.484.6-.584,1.43-.876,2.47-.876c1.03,0,1.83.284,2.39.852.56.56.85,1.332.85,2.316v.072h-1.56v-.12c0-.496-.14-.904-.42-1.224-.27-.32-.69-.48-1.26-.48-.56,0-1,.172-1.32.516s-.48.812-.48,1.404v2.064c0,.584.16,1.052.48,1.404.32.344.76.516,1.32.516.57,0,.99-.16,1.26-.48.28-.328.42-.736.42-1.224v-.216h1.56v.168c0,.984-.29,1.76-.85,2.328-.56.56-1.36.84-2.39.84Zm4.53-.168v-8.4h1.58v3.336h.22l2.72-3.336h2.03l-3.5,4.14l3.62,4.26h-2.09l-2.78-3.408h-.22v3.408h-1.58Zm7.51,0v-8.4h5.4v1.44h-3.81v2.004h3.48v1.44h-3.48v2.076h3.88v1.44h-5.47Zm8.59,0v-6.96h-2.45v-1.44h6.48v1.44h-2.45v6.96h-1.58Zm7.87.168c-.64,0-1.22-.116-1.71-.348-.5-.232-.89-.564-1.17-.996s-.42-.952-.42-1.56v-.336h1.56v.336c0,.504.16.884.47,1.14.31.248.74.372,1.27.372.55,0,.95-.108,1.22-.324s.4-.492.4-.828c0-.232-.06-.42-.2-.564-.13-.144-.32-.26-.58-.348-.24-.096-.55-.184-.91-.264l-.27-.06c-.58-.128-1.08-.288-1.49-.48-.41-.2-.73-.46-.95-.78s-.32-.736-.32-1.248.12-.948.36-1.308c.24-.368.59-.648,1.03-.84.45-.2.97-.3,1.57-.3s1.13.104,1.6.312c.47.2.84.504,1.1.912.27.4.41.904.41,1.512v.36h-1.56v-.36c0-.32-.07-.576-.19-.768-.12-.2-.3-.344-.53-.432-.23-.096-.51-.144-.83-.144-.48,0-.84.092-1.07.276-.22.176-.33.42-.33.732c0,.208.05.384.15.528.11.144.28.264.49.36.22.096.5.18.83.252l.28.06c.6.128,1.12.292,1.56.492.45.2.79.464,1.04.792s.37.748.37,1.26-.13.964-.39,1.356c-.26.384-.63.688-1.11.912-.47.216-1.03.324-1.68.324Zm8.99-.168v-6.96h-2.45v-1.44h6.48v1.44h-2.44v6.96h-1.59Zm8.04.168c-1.06,0-1.9-.288-2.52-.864-.63-.584-.94-1.416-.94-2.496v-2.016c0-1.08.31-1.908.94-2.484.62-.584,1.46-.876,2.52-.876c1.05,0,1.89.292,2.52.876.62.576.93,1.404.93,2.484v2.016c0,1.08-.31,1.912-.93,2.496-.63.576-1.47.864-2.52.864Zm0-1.416c.59,0,1.05-.172,1.38-.516s.49-.804.49-1.38v-2.112c0-.576-.16-1.036-.49-1.38s-.79-.516-1.38-.516-1.05.172-1.38.516-.49.804-.49,1.38v2.112c0,.576.16,1.036.49,1.38s.79.516,1.38.516ZM1247.65,23v-1.392h1.11v-5.616h-1.11v-1.392h3.46c1.13,0,1.98.288,2.57.864.59.568.89,1.416.89,2.544v1.584c0,1.128-.3,1.98-.89,2.556-.59.568-1.44.852-2.57.852h-3.46Zm2.69-1.44h.79c.64,0,1.11-.168,1.41-.504.29-.336.44-.808.44-1.416v-1.68c0-.616-.15-1.088-.44-1.416-.3-.336-.77-.504-1.41-.504h-.79v5.52Zm4.9,1.44l2.21-8.4h2.76l2.21,8.4h-1.64l-.45-1.848h-3L1256.87,23h-1.63Zm2.46-3.312h2.26l-1.02-4.092h-.22l-1.02,4.092ZM1264.71,23v-2.892l-2.85-5.508h1.76l1.78,3.6h.21l1.78-3.6h1.76l-2.85,5.508v2.892h-1.59Z" fill="#fff"/><path d="M1295,13.5c0,3.0376-2.46,5.5-5.5,5.5c3.04,0,5.5,2.4625,5.5,5.5c0-3.0375,2.46-5.5,5.5-5.5-3.04,0-5.5-2.4624-5.5-5.5Z" fill="#fff"/><path d="M1321.05,23v-1.392h1.11v-5.616h-1.11v-1.392h4.32c.51,0,.96.088,1.33.264.39.168.68.412.89.732.22.312.33.688.33,1.128v.12c0,.384-.08.7-.22.948-.14.24-.32.428-.52.564-.19.128-.37.22-.55.276v.216c.18.048.37.14.58.276.21.128.38.316.53.564s.22.572.22.972v.12c0,.464-.1.864-.32,1.2-.22.328-.52.58-.9.756s-.82.264-1.32.264h-4.37Zm2.69-1.44h1.49c.34,0,.62-.084.83-.252s.32-.408.32-.72v-.12c0-.312-.1-.552-.31-.72s-.49-.252-.84-.252h-1.49v2.064Zm0-3.504h1.46c.33,0,.6-.084.81-.252s.32-.4.32-.696v-.12c0-.304-.1-.536-.31-.696-.21-.168-.48-.252-.82-.252h-1.46v2.016Zm8.76,5.112c-.69,0-1.28-.124-1.78-.372-.48-.256-.86-.616-1.12-1.08-.26-.472-.39-1.028-.39-1.668v-5.448h1.59v5.496c0,.512.14.916.43,1.212s.72.444,1.27.444.97-.148,1.26-.444c.3-.296.44-.7.44-1.212v-5.496h1.59v5.448c0,.64-.13,1.196-.4,1.668-.25.464-.63.824-1.13,1.08-.48.248-1.07.372-1.76.372Zm6.98-.168v-2.892l-2.85-5.508h1.76l1.78,3.6h.21l1.78-3.6h1.76l-2.85,5.508v2.892h-1.59Zm9.84,0v-6.96h-2.45v-1.44h6.48v1.44h-2.44v6.96h-1.59Zm5.11,0v-8.4h1.59v8.4h-1.59Zm6.36.168c-1.04,0-1.87-.288-2.47-.864-.61-.584-.92-1.416-.92-2.496v-2.016c0-1.08.31-1.908.92-2.484.6-.584,1.43-.876,2.47-.876c1.03,0,1.83.284,2.39.852.56.56.85,1.332.85,2.316v.072h-1.56v-.12c0-.496-.14-.904-.42-1.224-.27-.32-.69-.48-1.26-.48-.56,0-1,.172-1.32.516s-.48.812-.48,1.404v2.064c0,.584.16,1.052.48,1.404.32.344.76.516,1.32.516.57,0,.99-.16,1.26-.48.28-.328.42-.736.42-1.224v-.216h1.56v.168c0,.984-.29,1.76-.85,2.328-.56.56-1.36.84-2.39.84Zm4.53-.168v-8.4h1.58v3.336h.22l2.72-3.336h2.03l-3.5,4.14l3.62,4.26h-2.09l-2.78-3.408h-.22v3.408h-1.58Zm7.51,0v-8.4h5.4v1.44h-3.81v2.004h3.48v1.44h-3.48v2.076h3.88v1.44h-5.47Zm8.59,0v-6.96h-2.45v-1.44h6.48v1.44h-2.45v6.96h-1.58Zm7.87.168c-.64,0-1.22-.116-1.71-.348-.5-.232-.89-.564-1.17-.996s-.42-.952-.42-1.56v-.336h1.56v.336c0,.504.16.884.47,1.14.31.248.74.372,1.27.372.55,0,.95-.108,1.22-.324s.4-.492.4-.828c0-.232-.06-.42-.2-.564-.13-.144-.32-.26-.58-.348-.24-.096-.55-.184-.91-.264l-.27-.06c-.58-.128-1.08-.288-1.49-.48-.41-.2-.73-.46-.95-.78s-.32-.736-.32-1.248.12-.948.36-1.308c.24-.368.59-.648,1.03-.84.45-.2.97-.3,1.57-.3s1.13.104,1.6.312c.47.2.84.504,1.1.912.27.4.41.904.41,1.512v.36h-1.56v-.36c0-.32-.07-.576-.19-.768-.12-.2-.3-.344-.53-.432-.23-.096-.51-.144-.83-.144-.48,0-.84.092-1.07.276-.22.176-.33.42-.33.732c0,.208.05.384.15.528.11.144.28.264.49.36.22.096.5.18.83.252l.28.06c.6.128,1.12.292,1.56.492.45.2.79.464,1.04.792s.37.748.37,1.26-.13.964-.39,1.356c-.26.384-.63.688-1.11.912-.47.216-1.03.324-1.68.324Zm8.99-.168v-6.96h-2.45v-1.44h6.48v1.44h-2.44v6.96h-1.59Zm8.04.168c-1.06,0-1.9-.288-2.52-.864-.63-.584-.94-1.416-.94-2.496v-2.016c0-1.08.31-1.908.94-2.484.62-.584,1.46-.876,2.52-.876c1.05,0,1.89.292,2.52.876.62.576.93,1.404.93,2.484v2.016c0,1.08-.31,1.912-.93,2.496-.63.576-1.47.864-2.52.864Zm0-1.416c.59,0,1.05-.172,1.38-.516s.49-.804.49-1.38v-2.112c0-.576-.16-1.036-.49-1.38s-.79-.516-1.38-.516-1.05.172-1.38.516-.49.804-.49,1.38v2.112c0,.576.16,1.036.49,1.38s.79.516,1.38.516ZM1410.65,23v-1.392h1.11v-5.616h-1.11v-1.392h3.46c1.13,0,1.98.288,2.57.864.59.568.89,1.416.89,2.544v1.584c0,1.128-.3,1.98-.89,2.556-.59.568-1.44.852-2.57.852h-3.46Zm2.69-1.44h.79c.64,0,1.11-.168,1.41-.504.29-.336.44-.808.44-1.416v-1.68c0-.616-.15-1.088-.44-1.416-.3-.336-.77-.504-1.41-.504h-.79v5.52Zm4.9,1.44l2.21-8.4h2.76l2.21,8.4h-1.64l-.45-1.848h-3L1419.87,23h-1.63Zm2.46-3.312h2.26l-1.02-4.092h-.22l-1.02,4.092ZM1427.71,23v-2.892l-2.85-5.508h1.76l1.78,3.6h.21l1.78-3.6h1.76l-2.85,5.508v2.892h-1.59Z" fill="#fff"/><path d="M1458,13.5c0,3.0376-2.46,5.5-5.5,5.5c3.04,0,5.5,2.4625,5.5,5.5c0-3.0375,2.46-5.5,5.5-5.5-3.04,0-5.5-2.4624-5.5-5.5Z" fill="#fff"/><path d="M1484.05,23v-1.392h1.11v-5.616h-1.11v-1.392h4.32c.51,0,.96.088,1.33.264.39.168.68.412.89.732.22.312.33.688.33,1.128v.12c0,.384-.08.7-.22.948-.14.24-.32.428-.52.564-.19.128-.37.22-.55.276v.216c.18.048.37.14.58.276.21.128.38.316.53.564s.22.572.22.972v.12c0,.464-.1.864-.32,1.2-.22.328-.52.58-.9.756s-.82.264-1.32.264h-4.37Zm2.69-1.44h1.49c.34,0,.62-.084.83-.252s.32-.408.32-.72v-.12c0-.312-.1-.552-.31-.72s-.49-.252-.84-.252h-1.49v2.064Zm0-3.504h1.46c.33,0,.6-.084.81-.252s.32-.4.32-.696v-.12c0-.304-.1-.536-.31-.696-.21-.168-.48-.252-.82-.252h-1.46v2.016Zm8.76,5.112c-.69,0-1.28-.124-1.78-.372-.48-.256-.86-.616-1.12-1.08-.26-.472-.39-1.028-.39-1.668v-5.448h1.59v5.496c0,.512.14.916.43,1.212s.72.444,1.27.444.97-.148,1.26-.444c.3-.296.44-.7.44-1.212v-5.496h1.59v5.448c0,.64-.13,1.196-.4,1.668-.25.464-.63.824-1.13,1.08-.48.248-1.07.372-1.76.372Zm6.98-.168v-2.892l-2.85-5.508h1.76l1.78,3.6h.21l1.78-3.6h1.76l-2.85,5.508v2.892h-1.59Zm9.84,0v-6.96h-2.45v-1.44h6.48v1.44h-2.44v6.96h-1.59Zm5.11,0v-8.4h1.59v8.4h-1.59Zm6.36.168c-1.04,0-1.87-.288-2.47-.864-.61-.584-.92-1.416-.92-2.496v-2.016c0-1.08.31-1.908.92-2.484.6-.584,1.43-.876,2.47-.876c1.03,0,1.83.284,2.39.852.56.56.85,1.332.85,2.316v.072h-1.56v-.12c0-.496-.14-.904-.42-1.224-.27-.32-.69-.48-1.26-.48-.56,0-1,.172-1.32.516s-.48.812-.48,1.404v2.064c0,.584.16,1.052.48,1.404.32.344.76.516,1.32.516.57,0,.99-.16,1.26-.48.28-.328.42-.736.42-1.224v-.216h1.56v.168c0,.984-.29,1.76-.85,2.328-.56.56-1.36.84-2.39.84Zm4.53-.168v-8.4h1.58v3.336h.22l2.72-3.336h2.03l-3.5,4.14l3.62,4.26h-2.09l-2.78-3.408h-.22v3.408h-1.58Zm7.51,0v-8.4h5.4v1.44h-3.81v2.004h3.48v1.44h-3.48v2.076h3.88v1.44h-5.47Zm8.59,0v-6.96h-2.45v-1.44h6.48v1.44h-2.45v6.96h-1.58Zm7.87.168c-.64,0-1.22-.116-1.71-.348-.5-.232-.89-.564-1.17-.996s-.42-.952-.42-1.56v-.336h1.56v.336c0,.504.16.884.47,1.14.31.248.74.372,1.27.372.55,0,.95-.108,1.22-.324s.4-.492.4-.828c0-.232-.06-.42-.2-.564-.13-.144-.32-.26-.58-.348-.24-.096-.55-.184-.91-.264l-.27-.06c-.58-.128-1.08-.288-1.49-.48-.41-.2-.73-.46-.95-.78s-.32-.736-.32-1.248.12-.948.36-1.308c.24-.368.59-.648,1.03-.84.45-.2.97-.3,1.57-.3s1.13.104,1.6.312c.47.2.84.504,1.1.912.27.4.41.904.41,1.512v.36h-1.56v-.36c0-.32-.07-.576-.19-.768-.12-.2-.3-.344-.53-.432-.23-.096-.51-.144-.83-.144-.48,0-.84.092-1.07.276-.22.176-.33.42-.33.732c0,.208.05.384.15.528.11.144.28.264.49.36.22.096.5.18.83.252l.28.06c.6.128,1.12.292,1.56.492.45.2.79.464,1.04.792s.37.748.37,1.26-.13.964-.39,1.356c-.26.384-.63.688-1.11.912-.47.216-1.03.324-1.68.324Zm8.99-.168v-6.96h-2.45v-1.44h6.48v1.44h-2.44v6.96h-1.59Zm8.04.168c-1.06,0-1.9-.288-2.52-.864-.63-.584-.94-1.416-.94-2.496v-2.016c0-1.08.31-1.908.94-2.484.62-.584,1.46-.876,2.52-.876c1.05,0,1.89.292,2.52.876.62.576.93,1.404.93,2.484v2.016c0,1.08-.31,1.912-.93,2.496-.63.576-1.47.864-2.52.864Zm0-1.416c.59,0,1.05-.172,1.38-.516s.49-.804.49-1.38v-2.112c0-.576-.16-1.036-.49-1.38s-.79-.516-1.38-.516-1.05.172-1.38.516-.49.804-.49,1.38v2.112c0,.576.16,1.036.49,1.38s.79.516,1.38.516ZM1573.65,23v-1.392h1.11v-5.616h-1.11v-1.392h3.46c1.13,0,1.98.288,2.57.864.59.568.89,1.416.89,2.544v1.584c0,1.128-.3,1.98-.89,2.556-.59.568-1.44.852-2.57.852h-3.46Zm2.69-1.44h.79c.64,0,1.11-.168,1.41-.504.29-.336.44-.808.44-1.416v-1.68c0-.616-.15-1.088-.44-1.416-.3-.336-.77-.504-1.41-.504h-.79v5.52Zm4.9,1.44l2.21-8.4h2.76l2.21,8.4h-1.64l-.45-1.848h-3L1582.87,23h-1.63Zm2.46-3.312h2.26l-1.02-4.092h-.22l-1.02,4.092ZM1590.71,23v-2.892l-2.85-5.508h1.76l1.78,3.6h.21l1.78-3.6h1.76l-2.85,5.508v2.892h-1.59Z" fill="#fff"/><path d="M1621,13.5c0,3.0376-2.46,5.5-5.5,5.5c3.04,0,5.5,2.4625,5.5,5.5c0-3.0375,2.46-5.5,5.5-5.5-3.04,0-5.5-2.4624-5.5-5.5Z" fill="#fff"/><path d="M1647.05,23v-1.392h1.11v-5.616h-1.11v-1.392h4.32c.51,0,.96.088,1.33.264.39.168.68.412.89.732.22.312.33.688.33,1.128v.12c0,.384-.08.7-.22.948-.14.24-.32.428-.52.564-.19.128-.37.22-.55.276v.216c.18.048.37.14.58.276.21.128.38.316.53.564s.22.572.22.972v.12c0,.464-.1.864-.32,1.2-.22.328-.52.58-.9.756s-.82.264-1.32.264h-4.37Zm2.69-1.44h1.49c.34,0,.62-.084.83-.252s.32-.408.32-.72v-.12c0-.312-.1-.552-.31-.72s-.49-.252-.84-.252h-1.49v2.064Zm0-3.504h1.46c.33,0,.6-.084.81-.252s.32-.4.32-.696v-.12c0-.304-.1-.536-.31-.696-.21-.168-.48-.252-.82-.252h-1.46v2.016Zm8.76,5.112c-.69,0-1.28-.124-1.78-.372-.48-.256-.86-.616-1.12-1.08-.26-.472-.39-1.028-.39-1.668v-5.448h1.59v5.496c0,.512.14.916.43,1.212s.72.444,1.27.444.97-.148,1.26-.444c.3-.296.44-.7.44-1.212v-5.496h1.59v5.448c0,.64-.13,1.196-.4,1.668-.25.464-.63.824-1.13,1.08-.48.248-1.07.372-1.76.372Zm6.98-.168v-2.892l-2.85-5.508h1.76l1.78,3.6h.21l1.78-3.6h1.76l-2.85,5.508v2.892h-1.59Zm9.84,0v-6.96h-2.45v-1.44h6.48v1.44h-2.44v6.96h-1.59Zm5.11,0v-8.4h1.59v8.4h-1.59Zm6.36.168c-1.04,0-1.87-.288-2.47-.864-.61-.584-.92-1.416-.92-2.496v-2.016c0-1.08.31-1.908.92-2.484.6-.584,1.43-.876,2.47-.876c1.03,0,1.83.284,2.39.852.56.56.85,1.332.85,2.316v.072h-1.56v-.12c0-.496-.14-.904-.42-1.224-.27-.32-.69-.48-1.26-.48-.56,0-1,.172-1.32.516s-.48.812-.48,1.404v2.064c0,.584.16,1.052.48,1.404.32.344.76.516,1.32.516.57,0,.99-.16,1.26-.48.28-.328.42-.736.42-1.224v-.216h1.56v.168c0,.984-.29,1.76-.85,2.328-.56.56-1.36.84-2.39.84Zm4.53-.168v-8.4h1.58v3.336h.22l2.72-3.336h2.03l-3.5,4.14l3.62,4.26h-2.09l-2.78-3.408h-.22v3.408h-1.58Zm7.51,0v-8.4h5.4v1.44h-3.81v2.004h3.48v1.44h-3.48v2.076h3.88v1.44h-5.47Zm8.59,0v-6.96h-2.45v-1.44h6.48v1.44h-2.45v6.96h-1.58Zm7.87.168c-.64,0-1.22-.116-1.71-.348-.5-.232-.89-.564-1.17-.996s-.42-.952-.42-1.56v-.336h1.56v.336c0,.504.16.884.47,1.14.31.248.74.372,1.27.372.55,0,.95-.108,1.22-.324s.4-.492.4-.828c0-.232-.06-.42-.2-.564-.13-.144-.32-.26-.58-.348-.24-.096-.55-.184-.91-.264l-.27-.06c-.58-.128-1.08-.288-1.49-.48-.41-.2-.73-.46-.95-.78s-.32-.736-.32-1.248.12-.948.36-1.308c.24-.368.59-.648,1.03-.84.45-.2.97-.3,1.57-.3s1.13.104,1.6.312c.47.2.84.504,1.1.912.27.4.41.904.41,1.512v.36h-1.56v-.36c0-.32-.07-.576-.19-.768-.12-.2-.3-.344-.53-.432-.23-.096-.51-.144-.83-.144-.48,0-.84.092-1.07.276-.22.176-.33.42-.33.732c0,.208.05.384.15.528.11.144.28.264.49.36.22.096.5.18.83.252l.28.06c.6.128,1.12.292,1.56.492.45.2.79.464,1.04.792s.37.748.37,1.26-.13.964-.39,1.356c-.26.384-.63.688-1.11.912-.47.216-1.03.324-1.68.324Zm8.99-.168v-6.96h-2.45v-1.44h6.48v1.44h-2.44v6.96h-1.59Zm8.04.168c-1.06,0-1.9-.288-2.52-.864-.63-.584-.94-1.416-.94-2.496v-2.016c0-1.08.31-1.908.94-2.484.62-.584,1.46-.876,2.52-.876c1.05,0,1.89.292,2.52.876.62.576.93,1.404.93,2.484v2.016c0,1.08-.31,1.912-.93,2.496-.63.576-1.47.864-2.52.864Zm0-1.416c.59,0,1.05-.172,1.38-.516s.49-.804.49-1.38v-2.112c0-.576-.16-1.036-.49-1.38s-.79-.516-1.38-.516-1.05.172-1.38.516-.49.804-.49,1.38v2.112c0,.576.16,1.036.49,1.38s.79.516,1.38.516ZM1736.65,23v-1.392h1.11v-5.616h-1.11v-1.392h3.46c1.13,0,1.98.288,2.57.864.59.568.89,1.416.89,2.544v1.584c0,1.128-.3,1.98-.89,2.556-.59.568-1.44.852-2.57.852h-3.46Zm2.69-1.44h.79c.64,0,1.11-.168,1.41-.504.29-.336.44-.808.44-1.416v-1.68c0-.616-.15-1.088-.44-1.416-.3-.336-.77-.504-1.41-.504h-.79v5.52Zm4.9,1.44l2.21-8.4h2.76l2.21,8.4h-1.64l-.45-1.848h-3L1745.87,23h-1.63Zm2.46-3.312h2.26l-1.02-4.092h-.22l-1.02,4.092ZM1753.71,23v-2.892l-2.85-5.508h1.76l1.78,3.6h.21l1.78-3.6h1.76l-2.85,5.508v2.892h-1.59Z" fill="#fff"/><path d="M1784,13.5c0,3.0376-2.46,5.5-5.5,5.5c3.04,0,5.5,2.4625,5.5,5.5c0-3.0375,2.46-5.5,5.5-5.5-3.04,0-5.5-2.4624-5.5-5.5Z" fill="#fff"/><path d="M1810.05,23v-1.392h1.11v-5.616h-1.11v-1.392h4.32c.51,0,.96.088,1.33.264.39.168.68.412.89.732.22.312.33.688.33,1.128v.12c0,.384-.08.7-.22.948-.14.24-.32.428-.52.564-.19.128-.37.22-.55.276v.216c.18.048.37.14.58.276.21.128.38.316.53.564s.22.572.22.972v.12c0,.464-.1.864-.32,1.2-.22.328-.52.58-.9.756s-.82.264-1.32.264h-4.37Zm2.69-1.44h1.49c.34,0,.62-.084.83-.252s.32-.408.32-.72v-.12c0-.312-.1-.552-.31-.72s-.49-.252-.84-.252h-1.49v2.064Zm0-3.504h1.46c.33,0,.6-.084.81-.252s.32-.4.32-.696v-.12c0-.304-.1-.536-.31-.696-.21-.168-.48-.252-.82-.252h-1.46v2.016Zm8.76,5.112c-.69,0-1.28-.124-1.78-.372-.48-.256-.86-.616-1.12-1.08-.26-.472-.39-1.028-.39-1.668v-5.448h1.59v5.496c0,.512.14.916.43,1.212s.72.444,1.27.444.97-.148,1.26-.444c.3-.296.44-.7.44-1.212v-5.496h1.59v5.448c0,.64-.13,1.196-.4,1.668-.25.464-.63.824-1.13,1.08-.48.248-1.07.372-1.76.372Zm6.98-.168v-2.892l-2.85-5.508h1.76l1.78,3.6h.21l1.78-3.6h1.76l-2.85,5.508v2.892h-1.59Zm9.84,0v-6.96h-2.45v-1.44h6.48v1.44h-2.44v6.96h-1.59Zm5.11,0v-8.4h1.59v8.4h-1.59Zm6.36.168c-1.04,0-1.87-.288-2.47-.864-.61-.584-.92-1.416-.92-2.496v-2.016c0-1.08.31-1.908.92-2.484.6-.584,1.43-.876,2.47-.876c1.03,0,1.83.284,2.39.852.56.56.85,1.332.85,2.316v.072h-1.56v-.12c0-.496-.14-.904-.42-1.224-.27-.32-.69-.48-1.26-.48-.56,0-1,.172-1.32.516s-.48.812-.48,1.404v2.064c0,.584.16,1.052.48,1.404.32.344.76.516,1.32.516.57,0,.99-.16,1.26-.48.28-.328.42-.736.42-1.224v-.216h1.56v.168c0,.984-.29,1.76-.85,2.328-.56.56-1.36.84-2.39.84Zm4.53-.168v-8.4h1.58v3.336h.22l2.72-3.336h2.03l-3.5,4.14l3.62,4.26h-2.09l-2.78-3.408h-.22v3.408h-1.58Zm7.51,0v-8.4h5.4v1.44h-3.81v2.004h3.48v1.44h-3.48v2.076h3.88v1.44h-5.47Zm8.59,0v-6.96h-2.45v-1.44h6.48v1.44h-2.45v6.96h-1.58Zm7.87.168c-.64,0-1.22-.116-1.71-.348-.5-.232-.89-.564-1.17-.996s-.42-.952-.42-1.56v-.336h1.56v.336c0,.504.16.884.47,1.14.31.248.74.372,1.27.372.55,0,.95-.108,1.22-.324s.4-.492.4-.828c0-.232-.06-.42-.2-.564-.13-.144-.32-.26-.58-.348-.24-.096-.55-.184-.91-.264l-.27-.06c-.58-.128-1.08-.288-1.49-.48-.41-.2-.73-.46-.95-.78s-.32-.736-.32-1.248.12-.948.36-1.308c.24-.368.59-.648,1.03-.84.45-.2.97-.3,1.57-.3s1.13.104,1.6.312c.47.2.84.504,1.1.912.27.4.41.904.41,1.512v.36h-1.56v-.36c0-.32-.07-.576-.19-.768-.12-.2-.3-.344-.53-.432-.23-.096-.51-.144-.83-.144-.48,0-.84.092-1.07.276-.22.176-.33.42-.33.732c0,.208.05.384.15.528.11.144.28.264.49.36.22.096.5.18.83.252l.28.06c.6.128,1.12.292,1.56.492.45.2.79.464,1.04.792s.37.748.37,1.26-.13.964-.39,1.356c-.26.384-.63.688-1.11.912-.47.216-1.03.324-1.68.324Zm8.99-.168v-6.96h-2.45v-1.44h6.48v1.44h-2.44v6.96h-1.59Zm8.04.168c-1.06,0-1.9-.288-2.52-.864-.63-.584-.94-1.416-.94-2.496v-2.016c0-1.08.31-1.908.94-2.484.62-.584,1.46-.876,2.52-.876c1.05,0,1.89.292,2.52.876.62.576.93,1.404.93,2.484v2.016c0,1.08-.31,1.912-.93,2.496-.63.576-1.47.864-2.52.864Zm0-1.416c.59,0,1.05-.172,1.38-.516s.49-.804.49-1.38v-2.112c0-.576-.16-1.036-.49-1.38s-.79-.516-1.38-.516-1.05.172-1.38.516-.49.804-.49,1.38v2.112c0,.576.16,1.036.49,1.38s.79.516,1.38.516ZM1899.65,23v-1.392h1.11v-5.616h-1.11v-1.392h3.46c1.13,0,1.98.288,2.57.864.59.568.89,1.416.89,2.544v1.584c0,1.128-.3,1.98-.89,2.556-.59.568-1.44.852-2.57.852h-3.46Zm2.69-1.44h.79c.64,0,1.11-.168,1.41-.504.29-.336.44-.808.44-1.416v-1.68c0-.616-.15-1.088-.44-1.416-.3-.336-.77-.504-1.41-.504h-.79v5.52Zm4.9,1.44l2.21-8.4h2.76l2.21,8.4h-1.64l-.45-1.848h-3L1908.87,23h-1.63Zm2.46-3.312h2.26l-1.02-4.092h-.22l-1.02,4.092ZM1916.71,23v-2.892l-2.85-5.508h1.76l1.78,3.6h.21l1.78-3.6h1.76l-2.85,5.508v2.892h-1.59Z" fill="#fff"/><path d="M1784,13.5c0,3.0376-2.46,5.5-5.5,5.5c3.04,0,5.5,2.4625,5.5,5.5c0-3.0375,2.46-5.5,5.5-5.5-3.04,0-5.5-2.4624-5.5-5.5Z" transform="translate(163 0)" fill="#fff"/><path d="M1810.05,23v-1.392h1.11v-5.616h-1.11v-1.392h4.32c.51,0,.96.088,1.33.264.39.168.68.412.89.732.22.312.33.688.33,1.128v.12c0,.384-.08.7-.22.948-.14.24-.32.428-.52.564-.19.128-.37.22-.55.276v.216c.18.048.37.14.58.276.21.128.38.316.53.564s.22.572.22.972v.12c0,.464-.1.864-.32,1.2-.22.328-.52.58-.9.756s-.82.264-1.32.264h-4.37Zm2.69-1.44h1.49c.34,0,.62-.084.83-.252s.32-.408.32-.72v-.12c0-.312-.1-.552-.31-.72s-.49-.252-.84-.252h-1.49v2.064Zm0-3.504h1.46c.33,0,.6-.084.81-.252s.32-.4.32-.696v-.12c0-.304-.1-.536-.31-.696-.21-.168-.48-.252-.82-.252h-1.46v2.016Zm8.76,5.112c-.69,0-1.28-.124-1.78-.372-.48-.256-.86-.616-1.12-1.08-.26-.472-.39-1.028-.39-1.668v-5.448h1.59v5.496c0,.512.14.916.43,1.212s.72.444,1.27.444.97-.148,1.26-.444c.3-.296.44-.7.44-1.212v-5.496h1.59v5.448c0,.64-.13,1.196-.4,1.668-.25.464-.63.824-1.13,1.08-.48.248-1.07.372-1.76.372Zm6.98-.168v-2.892l-2.85-5.508h1.76l1.78,3.6h.21l1.78-3.6h1.76l-2.85,5.508v2.892h-1.59Zm9.84,0v-6.96h-2.45v-1.44h6.48v1.44h-2.44v6.96h-1.59Zm5.11,0v-8.4h1.59v8.4h-1.59Zm6.36.168c-1.04,0-1.87-.288-2.47-.864-.61-.584-.92-1.416-.92-2.496v-2.016c0-1.08.31-1.908.92-2.484.6-.584,1.43-.876,2.47-.876c1.03,0,1.83.284,2.39.852.56.56.85,1.332.85,2.316v.072h-1.56v-.12c0-.496-.14-.904-.42-1.224-.27-.32-.69-.48-1.26-.48-.56,0-1,.172-1.32.516s-.48.812-.48,1.404v2.064c0,.584.16,1.052.48,1.404.32.344.76.516,1.32.516.57,0,.99-.16,1.26-.48.28-.328.42-.736.42-1.224v-.216h1.56v.168c0,.984-.29,1.76-.85,2.328-.56.56-1.36.84-2.39.84Zm4.53-.168v-8.4h1.58v3.336h.22l2.72-3.336h2.03l-3.5,4.14l3.62,4.26h-2.09l-2.78-3.408h-.22v3.408h-1.58Zm7.51,0v-8.4h5.4v1.44h-3.81v2.004h3.48v1.44h-3.48v2.076h3.88v1.44h-5.47Zm8.59,0v-6.96h-2.45v-1.44h6.48v1.44h-2.45v6.96h-1.58Zm7.87.168c-.64,0-1.22-.116-1.71-.348-.5-.232-.89-.564-1.17-.996s-.42-.952-.42-1.56v-.336h1.56v.336c0,.504.16.884.47,1.14.31.248.74.372,1.27.372.55,0,.95-.108,1.22-.324s.4-.492.4-.828c0-.232-.06-.42-.2-.564-.13-.144-.32-.26-.58-.348-.24-.096-.55-.184-.91-.264l-.27-.06c-.58-.128-1.08-.288-1.49-.48-.41-.2-.73-.46-.95-.78s-.32-.736-.32-1.248.12-.948.36-1.308c.24-.368.59-.648,1.03-.84.45-.2.97-.3,1.57-.3s1.13.104,1.6.312c.47.2.84.504,1.1.912.27.4.41.904.41,1.512v.36h-1.56v-.36c0-.32-.07-.576-.19-.768-.12-.2-.3-.344-.53-.432-.23-.096-.51-.144-.83-.144-.48,0-.84.092-1.07.276-.22.176-.33.42-.33.732c0,.208.05.384.15.528.11.144.28.264.49.36.22.096.5.18.83.252l.28.06c.6.128,1.12.292,1.56.492.45.2.79.464,1.04.792s.37.748.37,1.26-.13.964-.39,1.356c-.26.384-.63.688-1.11.912-.47.216-1.03.324-1.68.324Zm8.99-.168v-6.96h-2.45v-1.44h6.48v1.44h-2.44v6.96h-1.59Zm8.04.168c-1.06,0-1.9-.288-2.52-.864-.63-.584-.94-1.416-.94-2.496v-2.016c0-1.08.31-1.908.94-2.484.62-.584,1.46-.876,2.52-.876c1.05,0,1.89.292,2.52.876.62.576.93,1.404.93,2.484v2.016c0,1.08-.31,1.912-.93,2.496-.63.576-1.47.864-2.52.864Zm0-1.416c.59,0,1.05-.172,1.38-.516s.49-.804.49-1.38v-2.112c0-.576-.16-1.036-.49-1.38s-.79-.516-1.38-.516-1.05.172-1.38.516-.49.804-.49,1.38v2.112c0,.576.16,1.036.49,1.38s.79.516,1.38.516ZM1899.65,23v-1.392h1.11v-5.616h-1.11v-1.392h3.46c1.13,0,1.98.288,2.57.864.59.568.89,1.416.89,2.544v1.584c0,1.128-.3,1.98-.89,2.556-.59.568-1.44.852-2.57.852h-3.46Zm2.69-1.44h.79c.64,0,1.11-.168,1.41-.504.29-.336.44-.808.44-1.416v-1.68c0-.616-.15-1.088-.44-1.416-.3-.336-.77-.504-1.41-.504h-.79v5.52Zm4.9,1.44l2.21-8.4h2.76l2.21,8.4h-1.64l-.45-1.848h-3L1908.87,23h-1.63Zm2.46-3.312h2.26l-1.02-4.092h-.22l-1.02,4.092ZM1916.71,23v-2.892l-2.85-5.508h1.76l1.78,3.6h.21l1.78-3.6h1.76l-2.85,5.508v2.892h-1.59Z" transform="translate(163 0)" fill="#fff"/></g></g></svg>
